Perun-Medium.ufo
<glyph name="quotedbl" format="2">
  <advance width="474"/>
  <unicode hex="0022"/>
  <outline>
    <contour>
      <point x="170.667" y="433.333" type="line"/>
      <point x="146.667" y="722.333" type="line"/>
      <point x="267.333" y="722.333" type="line"/>
      <point x="243.333" y="433.333" type="line"/>
    </contour>
    <contour>
      <point x="231.333" y="433" type="line"/>
      <point x="207.333" y="722" type="line"/>
      <point x="328" y="722" type="line"/>
      <point x="304" y="433" type="line"/>
    </contour>
  </outline>
</glyph>
<glyph name="parenright" format="2">
  <advance width="368"/>
  <unicode hex="0029"/>
  <outline>
    <contour>
      <point x="91.6667" y="-131" type="line"/>
      <point x="146.667" y="25.3333"/>
      <point x="173.667" y="170.333"/>
      <point x="173.667" y="305.667" type="curve" smooth="yes"/>
      <point x="173.667" y="440"/>
      <point x="146.667" y="585"/>
      <point x="91.6667" y="737.333" type="curve"/>
      <point x="171" y="737.333" type="line"/>
      <point x="242" y="600.333"/>
      <point x="277.667" y="455.333"/>
      <point x="277.667" y="302.667" type="curve" smooth="yes"/>
      <point x="277.667" y="151"/>
      <point x="242" y="6.66667"/>
      <point x="171" y="-131" type="curve"/>
    </contour>
  </outline>
</glyph>
<glyph name="asterisk" format="2">
  <advance width="651"/>
  <unicode hex="002A"/>
  <outline>
    <contour>
      <point x="186" y="379.333" type="line"/>
      <point x="287" y="510" type="line"/>
      <point x="125.333" y="487.333" type="line"/>
      <point x="125.333" y="576" type="line"/>
      <point x="287" y="553.333" type="line"/>
      <point x="186" y="684" type="line"/>
      <point x="265.667" y="726.333" type="line"/>
      <point x="326.333" y="582" type="line"/>
      <point x="387" y="726.333" type="line"/>
      <point x="465.667" y="684" type="line"/>
      <point x="364.667" y="553.333" type="line"/>
      <point x="526.333" y="576" type="line"/>
      <point x="526.333" y="487.333" type="line"/>
      <point x="364.667" y="510" type="line"/>
      <point x="465.667" y="379.333" type="line"/>
      <point x="387" y="336" type="line"/>
      <point x="326.333" y="481.333" type="line"/>
      <point x="265.667" y="336" type="line"/>
    </contour>
  </outline>
</glyph>
<glyph name="hyphen" format="2">
  <advance width="325"/>
  <unicode hex="002D"/>
  <outline>
    <contour>
      <point x="40" y="198.667" type="line"/>
      <point x="40" y="297" type="line"/>
      <point x="285.667" y="297" type="line"/>
      <point x="285.667" y="198.667" type="line"/>
    </contour>
  </outline>
</glyph>
<glyph name="two" format="2">
  <advance width="563"/>
  <unicode hex="0032"/>
  <outline>
    <contour>
      <point x="50.3333" y="0" type="line"/>
      <point x="50.3333" y="104.667" type="line"/>
      <point x="277.667" y="252.333"/>
      <point x="398.333" y="416"/>
      <point x="398.333" y="528.333" type="curve" smooth="yes"/>
      <point x="398.333" y="601"/>
      <point x="356.667" y="644"/>
      <point x="292" y="644" type="curve" smooth="yes"/>
      <point x="227.333" y="644"/>
      <point x="187.667" y="601"/>
      <point x="181" y="525" type="curve"/>
      <point x="64.6667" y="525" type="line"/>
      <point x="72" y="659"/>
      <point x="155.333" y="735.667"/>
      <point x="292" y="735.667" type="curve" smooth="yes"/>
      <point x="418.667" y="735.667"/>
      <point x="510" y="650.667"/>
      <point x="510" y="529.667" type="curve" smooth="yes"/>
      <point x="510" y="360"/>
      <point x="329.333" y="196.333"/>
      <point x="175.333" y="90" type="curve"/>
      <point x="510.333" y="90" type="line"/>
      <point x="510.333" y="0" type="line"/>
    </contour>
  </outline>
</glyph>
<glyph name="semicolon" format="2">
  <advance width="287"/>
  <unicode hex="003B"/>
  <outline>
    <contour>
      <point x="72.6667" y="38" type="line"/>
      <point x="112.667" y="248.667" type="line"/>
      <point x="234.667" y="248.667" type="line"/>
      <point x="161.333" y="38" type="line"/>
    </contour>
    <contour>
      <point x="81.3333" y="211.333" type="line"/>
      <point x="107.667" y="377.333" type="line"/>
      <point x="225" y="377.333" type="line"/>
      <point x="185" y="211.333" type="line"/>
    </contour>
  </outline>
</glyph>
<glyph name="equal" format="2">
  <advance width="800"/>
  <unicode hex="003D"/>
  <outline>
    <contour>
      <point x="100" y="238.667" type="line"/>
      <point x="100" y="320.667" type="line"/>
      <point x="700" y="320.667" type="line"/>
      <point x="700" y="238.667" type="line"/>
    </contour>
    <contour>
      <point x="100" y="279.333" type="line"/>
      <point x="100" y="361.333" type="line"/>
      <point x="700" y="361.333" type="line"/>
      <point x="700" y="279.333" type="line"/>
    </contour>
  </outline>
</glyph>
<glyph name="A" format="2">
  <advance width="736"/>
  <unicode hex="0041"/>
  <anchor x="368.333" y="-75" name="bottom"/>
  <anchor x="636.333" y="10" name="ogonekUC"/>
  <anchor x="368.333" y="797" name="top"/>
  <outline>
    <contour>
      <point x="241.333" y="275" type="line"/>
      <point x="490.333" y="275" type="line"/>
      <point x="365.667" y="594.333" type="line"/>
    </contour>
    <contour>
      <point x="13.3333" y="0" type="line"/>
      <point x="305.667" y="721.333" type="line"/>
      <point x="428.667" y="721.333" type="line"/>
      <point x="723.333" y="0" type="line"/>
      <point x="604.333" y="0" type="line"/>
      <point x="532.333" y="180" type="line"/>
      <point x="201.333" y="180" type="line"/>
      <point x="130.333" y="0" type="line"/>
    </contour>
  </outline>
</glyph>
<glyph name="J" format="2">
  <advance width="568"/>
  <unicode hex="004A"/>
  <anchor x="439" y="797" name="top"/>
  <outline>
    <contour>
      <point x="51.6667" y="205" type="curve"/>
      <point x="168.333" y="205" type="line"/>
      <point x="168.333" y="123.667"/>
      <point x="206" y="82.6667"/>
      <point x="270.333" y="82.6667" type="curve" smooth="yes"/>
      <point x="352" y="82.6667"/>
      <point x="388.333" y="135.667"/>
      <point x="388.333" y="217.333" type="curve" smooth="yes"/>
      <point x="388.333" y="722.333" type="line"/>
      <point x="505" y="722.333" type="line"/>
      <point x="505" y="214.333" type="line" smooth="yes"/>
      <point x="505" y="77.3333"/>
      <point x="409" y="-14"/>
      <point x="274.333" y="-14" type="curve" smooth="yes"/>
      <point x="136.667" y="-14"/>
      <point x="51.6667" y="71.3333"/>
    </contour>
  </outline>
</glyph>
<glyph name="L" format="2">
  <advance width="520"/>
  <unicode hex="004C"/>
  <anchor x="116.667" y="797" name="top"/>
  <outline>
    <contour>
      <point x="63.3333" y="0" type="line"/>
      <point x="63.3333" y="722" type="line"/>
      <point x="180" y="722" type="line"/>
      <point x="180" y="96.3333" type="line"/>
      <point x="502" y="96.3333" type="line"/>
      <point x="502" y="0" type="line"/>
    </contour>
  </outline>
</glyph>
<glyph name="O" format="2">
  <advance width="767"/>
  <unicode hex="004F"/>
  <anchor x="374" y="797" name="top"/>
  <outline>
    <contour>
      <point x="52" y="361" type="curve" smooth="yes"/>
      <point x="52" y="579"/>
      <point x="162.667" y="734.667"/>
      <point x="384.667" y="734.667" type="curve"/>
      <point x="384.667" y="638" type="line"/>
      <point x="231.333" y="638"/>
      <point x="171" y="537.667"/>
      <point x="171" y="361" type="curve" smooth="yes"/>
      <point x="171" y="184.333"/>
      <point x="231.333" y="84"/>
      <point x="384.667" y="84" type="curve"/>
      <point x="384.667" y="-12.6667" type="line"/>
      <point x="162.667" y="-12.6667"/>
      <point x="52" y="143"/>
    </contour>
    <contour>
      <point x="717.333" y="361" type="curve" smooth="yes"/>
      <point x="717.333" y="143"/>
      <point x="606.667" y="-12.6667"/>
      <point x="384.667" y="-12.6667" type="curve"/>
      <point x="384.667" y="84" type="line"/>
      <point x="538" y="84"/>
      <point x="598.333" y="184.333"/>
      <point x="598.333" y="361" type="curve" smooth="yes"/>
      <point x="598.333" y="537.667"/>
      <point x="538" y="638"/>
      <point x="384.667" y="638" type="curve"/>
      <point x="384.667" y="734.667" type="line"/>
      <point x="606.667" y="734.667"/>
      <point x="717.333" y="579"/>
    </contour>
  </outline>
</glyph>
<glyph name="V" format="2">
  <advance width="682"/>
  <unicode hex="0056"/>
  <anchor x="371" y="797" name="top"/>
  <outline>
    <contour>
      <point x="668.667" y="722" type="line"/>
      <point x="405.667" y="0" type="line"/>
      <point x="273" y="0" type="line"/>
      <point x="13.3333" y="722" type="line"/>
      <point x="142" y="722" type="line"/>
      <point x="341" y="142.333" type="line"/>
      <point x="540" y="722" type="line"/>
    </contour>
  </outline>
</glyph>
<glyph name="Y" format="2">
  <advance width="662"/>
  <unicode hex="0059"/>
  <anchor x="359" y="797" name="top"/>
  <outline>
    <contour>
      <point x="648" y="722" type="line"/>
      <point x="388.667" y="282.333" type="line"/>
      <point x="388.667" y="0" type="line"/>
      <point x="272" y="0" type="line"/>
      <point x="272" y="282.333" type="line"/>
      <point x="13.3333" y="722" type="line"/>
      <point x="150.667" y="722" type="line"/>
      <point x="334.333" y="389.667" type="line"/>
      <point x="516.667" y="722" type="line"/>
    </contour>
  </outline>
</glyph>
<glyph name="bracketleft" format="2">
  <advance width="394"/>
  <unicode hex="005B"/>
  <outline>
    <contour>
      <point x="297.333" y="-198" type="line"/>
      <point x="98.3333" y="-198" type="line"/>
      <point x="98.3333" y="722" type="line"/>
      <point x="297.333" y="722" type="line"/>
      <point x="297.333" y="658" type="line"/>
      <point x="195.667" y="658" type="line"/>
      <point x="195.667" y="-134" type="line"/>
      <point x="297.333" y="-134" type="line"/>
    </contour>
  </outline>
</glyph>
<glyph name="b" format="2">
  <advance width="609"/>
  <unicode hex="0062"/>
  <anchor x="304" y="768.333" name="top"/>
  <outline>
    <contour>
      <point x="73.3333" y="0" type="line"/>
      <point x="73.3333" y="722" type="line"/>
      <point x="176.333" y="722" type="line"/>
      <point x="176.333" y="439" type="line"/>
      <point x="215" y="490.333"/>
      <point x="263.333" y="513.333"/>
      <point x="334.333" y="513.333" type="curve" smooth="yes"/>
      <point x="469.667" y="513.333"/>
      <point x="554.667" y="417"/>
      <point x="554.667" y="264.667" type="curve" smooth="yes"/>
      <point x="554.667" y="107.333"/>
      <point x="455.667" y="-13.3333"/>
      <point x="327.667" y="-13.3333" type="curve" smooth="yes"/>
      <point x="275.667" y="-13.3333"/>
      <point x="222" y="13.6667"/>
      <point x="176.333" y="62.3333" type="curve"/>
      <point x="176.333" y="0" type="line"/>
    </contour>
    <contour>
      <point x="175.333" y="256.667" type="curve" smooth="yes"/>
      <point x="175.333" y="133"/>
      <point x="224" y="61"/>
      <point x="305.667" y="61" type="curve" smooth="yes"/>
      <point x="391" y="61"/>
      <point x="445.667" y="139"/>
      <point x="445.667" y="257.667" type="curve" smooth="yes"/>
      <point x="445.667" y="372.667"/>
      <point x="393.333" y="446.333"/>
      <point x="313" y="446.333" type="curve" smooth="yes"/>
      <point x="230.667" y="446.333"/>
      <point x="175.333" y="369"/>
    </contour>
  </outline>
</glyph>
<glyph name="g" format="2">
  <advance width="611"/>
  <unicode hex="0067"/>
  <anchor x="269.333" y="583.333" name="cedilla.top"/>
  <anchor x="289.667" y="583.333" name="top"/>
  <outline>
    <contour>
      <point x="54.6667" y="264.667" type="curve" smooth="yes"/>
      <point x="54.6667" y="400.333"/>
      <point x="133.667" y="513.333"/>
      <point x="275" y="513.333" type="curve" smooth="yes"/>
      <point x="348" y="513.333"/>
      <point x="397" y="488.333"/>
      <point x="432.333" y="447.333" type="curve"/>
      <point x="432.333" y="500" type="line"/>
      <point x="537.333" y="500" type="line"/>
      <point x="537.333" y="21" type="line" smooth="yes"/>
      <point x="537.333" y="-119.667"/>
      <point x="438.667" y="-198.333"/>
      <point x="289.333" y="-198.333" type="curve" smooth="yes"/>
      <point x="191.333" y="-198.333"/>
      <point x="81" y="-152"/>
      <point x="81" y="-43.3333" type="curve"/>
      <point x="188.667" y="-43.3333" type="line"/>
      <point x="188.667" y="-100.667"/>
      <point x="242.667" y="-127"/>
      <point x="300.667" y="-127" type="curve" smooth="yes"/>
      <point x="389.667" y="-127"/>
      <point x="432.333" y="-68.3333"/>
      <point x="432.333" y="30.3333" type="curve" smooth="yes"/>
      <point x="432.333" y="90.3333" type="line"/>
      <point x="400.333" y="49.6667"/>
      <point x="355.333" y="9.33333"/>
      <point x="274.667" y="9.33333" type="curve" smooth="yes"/>
      <point x="124.333" y="9.33333"/>
      <point x="54.6667" y="119.333"/>
    </contour>
    <contour>
      <point x="291.667" y="80.6667" type="curve" smooth="yes"/>
      <point x="385" y="80.6667"/>
      <point x="432.333" y="168.667"/>
      <point x="432.333" y="260" type="curve" smooth="yes"/>
      <point x="432.333" y="358"/>
      <point x="393.333" y="441.333"/>
      <point x="295.333" y="441.333" type="curve" smooth="yes"/>
      <point x="205.333" y="441.333"/>
      <point x="162.333" y="371.333"/>
      <point x="162.333" y="265.333" type="curve" smooth="yes"/>
      <point x="162.333" y="167.333"/>
      <point x="199.333" y="80.6667"/>
    </contour>
  </outline>
</glyph>
<glyph name="i" format="2">
  <advance width="269"/>
  <unicode hex="0069"/>
  <outline>
    <contour>
      <point x="82" y="0" type="line"/>
      <point x="82" y="500" type="line"/>
      <point x="187" y="500" type="line"/>
      <point x="187" y="0" type="line"/>
    </contour>
    <contour>
      <point x="73.3333" y="617.333" type="line"/>
      <point x="73.3333" y="722" type="line"/>
      <point x="195.667" y="722" type="line"/>
      <point x="195.667" y="617.333" type="line"/>
    </contour>
  </outline>
</glyph>
<glyph name="j" format="2">
  <advance width="279"/>
  <unicode hex="006A"/>
  <outline>
    <contour>
      <point x="36.6667" y="-204" type="line"/>
      <point x="36.6667" y="-123.667" type="line"/>
      <point x="57.3333" y="-123.667" type="line" smooth="yes"/>
      <point x="87.6667" y="-123.667"/>
      <point x="91.3333" y="-86"/>
      <point x="91.3333" y="-46" type="curve" smooth="yes"/>
      <point x="91.3333" y="500" type="line"/>
      <point x="196.333" y="500" type="line"/>
      <point x="196.333" y="-76" type="line" smooth="yes"/>
      <point x="196.333" y="-167.333"/>
      <point x="139.667" y="-204"/>
      <point x="61" y="-204" type="curve" smooth="yes"/>
    </contour>
    <contour>
      <point x="83.3333" y="617.333" type="line"/>
      <point x="83.3333" y="722" type="line"/>
      <point x="205.667" y="722" type="line"/>
      <point x="205.667" y="617.333" type="line"/>
    </contour>
  </outline>
</glyph>
<glyph name="p" format="2">
  <advance width="615"/>
  <unicode hex="0070"/>
  <outline>
    <contour>
      <point x="76.6667" y="-199.333" type="line"/>
      <point x="76.6667" y="413.667" type="line" smooth="yes"/>
      <point x="76.6667" y="444"/>
      <point x="75.3333" y="470"/>
      <point x="73.3333" y="500" type="curve"/>
      <point x="180" y="500" type="line"/>
      <point x="180.883" y="484.123"/>
      <point x="182.069" y="444.108"/>
      <point x="182.333" y="424.667" type="curve"/>
      <point x="214" y="474.667"/>
      <point x="271.333" y="512.667"/>
      <point x="342.333" y="512.667" type="curve" smooth="yes"/>
      <point x="480.667" y="512.667"/>
      <point x="560" y="407.333"/>
      <point x="560" y="253.667" type="curve" smooth="yes"/>
      <point x="560" y="93.3333"/>
      <point x="476.667" y="-14"/>
      <point x="333.667" y="-14" type="curve" smooth="yes"/>
      <point x="267.667" y="-14"/>
      <point x="216.667" y="8"/>
      <point x="181.667" y="53.6667" type="curve"/>
      <point x="181.667" y="-199.333" type="line"/>
    </contour>
    <contour>
      <point x="180" y="252" type="curve" smooth="yes"/>
      <point x="180" y="166"/>
      <point x="204.333" y="58"/>
      <point x="311.333" y="58" type="curve" smooth="yes"/>
      <point x="407.667" y="58"/>
      <point x="452.333" y="141.667"/>
      <point x="452.333" y="254.333" type="curve" smooth="yes"/>
      <point x="452.333" y="365"/>
      <point x="410.667" y="440"/>
      <point x="318.333" y="440" type="curve" smooth="yes"/>
      <point x="227.333" y="440"/>
      <point x="180" y="364.667"/>
    </contour>
  </outline>
</glyph>
<glyph name="q" format="2">
  <advance width="616"/>
  <unicode hex="0071"/>
  <anchor x="274.333" y="586.667" name="top"/>
  <outline>
    <contour>
      <point x="54.6667" y="248.417" type="curve" smooth="yes"/>
      <point x="54.6667" y="403.484"/>
      <point x="126.509" y="512.667"/>
      <point x="281.608" y="512.667" type="curve" smooth="yes"/>
      <point x="350.699" y="512.667"/>
      <point x="401.384" y="483.828"/>
      <point x="437.333" y="433.71" type="curve"/>
      <point x="437.333" y="499.725" type="line"/>
      <point x="542.333" y="499.725" type="line"/>
      <point x="542.333" y="-200" type="line"/>
      <point x="437.333" y="-200" type="line"/>
      <point x="437.333" y="49.9967" type="line"/>
      <point x="384.625" y="9.33333"/>
      <point x="332.263" y="-12.6667"/>
      <point x="279.164" y="-12.6667" type="curve" smooth="yes"/>
      <point x="123.856" y="-12.6667"/>
      <point x="54.6667" y="96.1926"/>
    </contour>
    <contour>
      <point x="162.667" y="250.988" type="curve" smooth="yes"/>
      <point x="162.667" y="155.352"/>
      <point x="201.634" y="58.6667"/>
      <point x="301.831" y="58.6667" type="curve" smooth="yes"/>
      <point x="400.346" y="58.6667"/>
      <point x="439" y="153.705"/>
      <point x="439" y="248.201" type="curve" smooth="yes"/>
      <point x="439" y="350.628"/>
      <point x="394.013" y="439"/>
      <point x="299.363" y="439" type="curve" smooth="yes"/>
      <point x="202.634" y="439"/>
      <point x="162.667" y="347.982"/>
    </contour>
  </outline>
</glyph>
<glyph name="t" format="2">
  <advance width="369"/>
  <unicode hex="0074"/>
  <anchor x="183.333" y="10" name="cedilla.bottom"/>
  <anchor x="178" y="714.667" name="top"/>
  <outline>
    <contour>
      <point x="224.333" y="139" type="line" smooth="yes"/>
      <point x="224.333" y="92.3333"/>
      <point x="241.667" y="63"/>
      <point x="283" y="63" type="curve" smooth="yes"/>
      <point x="302.333" y="63"/>
      <point x="322" y="66"/>
      <point x="340.333" y="72" type="curve"/>
      <point x="340.333" y="1" type="line"/>
      <point x="311.333" y="-8.66667"/>
      <point x="280" y="-12.6667"/>
      <point x="248.333" y="-12.6667" type="curve" smooth="yes"/>
      <point x="162.333" y="-12.6667"/>
      <point x="119.333" y="36.6667"/>
      <point x="119.333" y="128.333" type="curve" smooth="yes"/>
      <point x="119.333" y="428.333" type="line"/>
      <point x="26" y="428.333" type="line"/>
      <point x="26" y="500" type="line"/>
      <point x="119.333" y="500" type="line"/>
      <point x="119.333" y="591.667" type="line"/>
      <point x="224.333" y="639.667" type="line"/>
      <point x="224.333" y="500" type="line"/>
      <point x="337.333" y="500" type="line"/>
      <point x="337.333" y="428.333" type="line"/>
      <point x="224.333" y="428.333" type="line"/>
    </contour>
  </outline>
</glyph>
<glyph name="x" format="2">
  <advance width="554"/>
  <unicode hex="0078"/>
  <outline>
    <contour>
      <point x="533.667" y="0" type="line"/>
      <point x="404.333" y="0" type="line"/>
      <point x="269.667" y="191" type="line"/>
      <point x="140" y="0" type="line"/>
      <point x="20" y="0" type="line"/>
      <point x="212" y="262" type="line"/>
      <point x="35.6667" y="500" type="line"/>
      <point x="165" y="500" type="line"/>
      <point x="285.667" y="331.667" type="line"/>
      <point x="399.333" y="500" type="line"/>
      <point x="519.333" y="500" type="line"/>
      <point x="342.667" y="262" type="line"/>
    </contour>
  </outline>
</glyph>
<glyph name="y" format="2">
  <advance width="551"/>
  <unicode hex="0079"/>
  <outline>
    <contour>
      <point x="229.333" y="0.666667" type="line"/>
      <point x="20" y="500" type="line"/>
      <point x="141" y="500" type="line"/>
      <point x="284.667" y="142.667" type="line"/>
      <point x="418.667" y="500" type="line"/>
      <point x="531" y="500" type="line"/>
      <point x="266.333" y="-200" type="line"/>
      <point x="155.667" y="-200" type="line"/>
    </contour>
  </outline>
</glyph>
<glyph name="braceleft" format="2">
  <advance width="495"/>
  <unicode hex="007B"/>
  <outline>
    <contour>
      <point x="381.667" y="-131.333" type="curve"/>
      <point x="265" y="-154.333"/>
      <point x="238" y="-134"/>
      <point x="238" y="-53" type="curve"/>
      <point x="238" y="-59"/>
      <point x="259" y="-19.3333"/>
      <point x="280.667" y="-2" type="curve"/>
      <point x="280.667" y="43.1644"/>
      <point x="264.667" y="63.7517"/>
      <point x="200.667" y="69.3333" type="curve"/>
      <point x="152" y="79.2175"/>
      <point x="118.667" y="111.501"/>
      <point x="118.667" y="175.667" type="curve"/>
      <point x="186.667" y="203.667"/>
      <point x="200.333" y="263.333"/>
      <point x="200.333" y="318.667" type="curve" smooth="yes"/>
      <point x="200.333" y="375.667"/>
      <point x="176" y="418.333"/>
      <point x="152.667" y="444.667" type="curve"/>
      <point x="152.667" y="539.532"/>
      <point x="181.333" y="599.607"/>
      <point x="295.333" y="606.667" type="curve"/>
      <point x="326" y="601.319"/>
      <point x="339" y="586.299"/>
      <point x="339" y="610" type="curve"/>
      <point x="279" y="622.333"/>
      <point x="256" y="602.333"/>
      <point x="256" y="564.333" type="curve"/>
      <point x="256" y="596.667"/>
      <point x="293" y="579.667"/>
      <point x="341.667" y="553" type="curve"/>
      <point x="341.667" y="485.015"/>
      <point x="320.333" y="438.059"/>
      <point x="283" y="395" type="curve"/>
      <point x="298.667" y="374.333"/>
      <point x="302.333" y="321.333"/>
      <point x="302.333" y="223.333" type="curve" smooth="yes"/>
      <point x="302.333" y="195.667"/>
      <point x="300" y="165.667"/>
      <point x="300" y="130.667" type="curve" smooth="yes"/>
      <point x="300" y="39.6667"/>
      <point x="320.333" y="-5.66667"/>
      <point x="341" y="-24" type="curve" smooth="yes"/>
      <point x="376.333" y="-54.1595"/>
      <point x="381.667" y="-113.655"/>
    </contour>
  </outline>
</glyph>
<glyph name="exclamdown" format="2">
  <advance width="266"/>
  <unicode hex="00A1"/>
  <outline>
    <contour>
      <point x="186.667" y="-3.66667" type="line"/>
      <point x="88" y="-3.66667" type="line"/>
      <point x="88" y="387.333" type="line"/>
      <point x="186.667" y="387.333" type="line"/>
    </contour>
    <contour>
      <point x="190" y="204" type="line"/>
      <point x="73.3333" y="204" type="line"/>
      <point x="82" y="436.333" type="line"/>
      <point x="181.333" y="436.333" type="line"/>
    </contour>
  </outline>
</glyph>
<glyph name="cent" format="2">
  <advance width="563"/>
  <unicode hex="00A2"/>
  <outline>
    <component base="c" xOffset="8"/>
    <contour>
      <point x="422.333" y="612" type="line"/>
      <point x="371.667" y="625" type="line"/>
      <point x="126.667" y="-126.667" type="line"/>
      <point x="176.333" y="-139.667" type="line"/>
    </contour>
  </outline>
</glyph>
<glyph name="copyright" format="2">
  <advance width="867"/>
  <unicode hex="00A9"/>
  <outline>
    <contour>
      <point x="225" y="355" type="curve" smooth="yes"/>
      <point x="225" y="500.648"/>
      <point x="292.345" y="591.333"/>
      <point x="427.667" y="591.333" type="curve" smooth="yes"/>
      <point x="560.771" y="591.333"/>
      <point x="620.667" y="523.688"/>
      <point x="620.667" y="432.667" type="curve"/>
      <point x="529.333" y="432.667" type="line"/>
      <point x="527.667" y="496.667"/>
      <point x="493" y="529"/>
      <point x="425.667" y="529" type="curve" smooth="yes"/>
      <point x="358.678" y="529"/>
      <point x="319.517" y="473.613"/>
      <point x="319.517" y="380.796" type="curve" smooth="yes"/>
      <point x="319.517" y="355.333" type="line" smooth="yes"/>
      <point x="319.517" y="258.517"/>
      <point x="349.579" y="190.667"/>
      <point x="431.333" y="190.667" type="curve" smooth="yes"/>
      <point x="498.667" y="190.667"/>
      <point x="527" y="238.667"/>
      <point x="531" y="292" type="curve"/>
      <point x="623.333" y="292" type="line"/>
      <point x="616.667" y="186.542"/>
      <point x="547.211" y="123.333"/>
      <point x="433.333" y="123.333" type="curve" smooth="yes"/>
      <point x="292.565" y="123.333"/>
      <point x="225" y="214.244"/>
    </contour>
    <contour>
      <point x="59" y="360" type="curve" smooth="yes"/>
      <point x="59" y="566.875"/>
      <point x="226.009" y="735"/>
      <point x="433" y="735" type="curve" smooth="yes"/>
      <point x="639.875" y="735"/>
      <point x="808" y="567.991"/>
      <point x="808" y="361" type="curve" smooth="yes"/>
      <point x="808" y="153.989"/>
      <point x="640.2" y="-16"/>
      <point x="433" y="-16" type="curve" smooth="yes"/>
      <point x="225.098" y="-16"/>
      <point x="59" y="152.31"/>
    </contour>
    <contour>
      <point x="114.333" y="357.333" type="curve" smooth="yes"/>
      <point x="114.333" y="179.416"/>
      <point x="257.083" y="38"/>
      <point x="432.333" y="38" type="curve" smooth="yes"/>
      <point x="608.969" y="38"/>
      <point x="749.667" y="178.764"/>
      <point x="749.667" y="356" type="curve" smooth="yes"/>
      <point x="749.667" y="530.26"/>
      <point x="607.219" y="676.667"/>
      <point x="432" y="676.667" type="curve" smooth="yes"/>
      <point x="256.901" y="676.667"/>
      <point x="114.333" y="531.672"/>
    </contour>
  </outline>
</glyph>
<glyph name="uni00AD" format="2">
  <advance width="330"/>
  <unicode hex="00AD"/>
  <outline>
    <contour>
      <point x="290" y="261" type="line"/>
      <point x="40" y="261" type="line"/>
      <point x="40" y="337" type="line"/>
      <point x="290" y="337" type="line"/>
    </contour>
  </outline>
</glyph>
<glyph name="acute" format="2">
  <advance width="181"/>
  <unicode hex="00B4"/>
  <outline>
    <contour>
      <point x="180.667" y="741.333" type="line"/>
      <point x="70.3333" y="541.333" type="line"/>
      <point x="0.333333" y="541.333" type="line"/>
      <point x="70.6667" y="741.333" type="line"/>
    </contour>
  </outline>
</glyph>
<glyph name="paragraph" format="2">
  <advance width="559"/>
  <unicode hex="00B6"/>
  <outline>
    <contour>
      <point x="525" y="666" type="line"/>
      <point x="464" y="666" type="line"/>
      <point x="464" y="-160" type="line"/>
      <point x="394" y="-160" type="line"/>
      <point x="394" y="666" type="line"/>
      <point x="314" y="666" type="line"/>
      <point x="314" y="-160" type="line"/>
      <point x="244" y="-160" type="line"/>
      <point x="244" y="352" type="line"/>
      <point x="143.131" y="352"/>
      <point x="48.3333" y="407.83"/>
      <point x="48.3333" y="520.425" type="curve" smooth="yes"/>
      <point x="48.3333" y="640.51"/>
      <point x="156.171" y="722"/>
      <point x="248.333" y="722" type="curve" smooth="yes"/>
      <point x="525" y="722" type="line"/>
    </contour>
  </outline>
</glyph>
<glyph name="periodcentered" format="2">
  <advance width="278"/>
  <unicode hex="00B7"/>
  <outline>
    <contour>
      <point x="196.333" y="277.333" type="line"/>
      <point x="82.3333" y="277.333" type="line"/>
      <point x="82.3333" y="403.333" type="line"/>
      <point x="196.333" y="403.333" type="line"/>
    </contour>
  </outline>
</glyph>
<glyph name="cedilla" format="2">
  <advance width="295"/>
  <unicode hex="00B8"/>
  <outline>
    <contour>
      <point x="268" y="-150.545" type="curve" smooth="yes"/>
      <point x="268" y="-210.893"/>
      <point x="225.244" y="-243.667"/>
      <point x="156.62" y="-243.667" type="curve" smooth="yes"/>
      <point x="131.62" y="-243.667"/>
      <point x="108.64" y="-240.967"/>
      <point x="71.9906" y="-234.667" type="curve"/>
      <point x="71.9906" y="-181.333" type="line"/>
      <point x="97.82" y="-190.327"/>
      <point x="126.956" y="-193.667"/>
      <point x="150.438" y="-193.667" type="curve" smooth="yes"/>
      <point x="176.082" y="-193.667"/>
      <point x="192.333" y="-177.833"/>
      <point x="192.333" y="-151.545" type="curve" smooth="yes"/>
      <point x="192.333" y="-117.384"/>
      <point x="159.423" y="-100.333"/>
      <point x="120.664" y="-100.333" type="curve" smooth="yes"/>
      <point x="76.6667" y="-100.333" type="line"/>
      <point x="132" y="13" type="line"/>
      <point x="188" y="13" type="line"/>
      <point x="150.473" y="-59.1117" type="line"/>
      <point x="234.547" y="-59.1117"/>
      <point x="268" y="-88.9937"/>
    </contour>
  </outline>
</glyph>
<glyph name="onesuperior" format="2">
  <advance width="290"/>
  <unicode hex="00B9"/>
  <outline>
    <contour>
      <point x="222.667" y="351.333" type="line"/>
      <point x="146.667" y="351.333" type="line"/>
      <point x="146.667" y="664.667" type="line"/>
      <point x="114.264" y="640.724"/>
      <point x="82.1046" y="625.129"/>
      <point x="51" y="616" type="curve"/>
      <point x="51" y="674.667" type="line"/>
      <point x="76.3333" y="683.667"/>
      <point x="121.062" y="707.32"/>
      <point x="137.801" y="722.018" type="curve" smooth="yes"/>
      <point x="150" y="732.667" type="line"/>
      <point x="222.667" y="732.667" type="line"/>
    </contour>
  </outline>
</glyph>
<glyph name="guillemotright" format="2">
  <advance width="572"/>
  <unicode hex="00BB"/>
  <outline>
    <contour>
      <point x="376.333" y="252" type="line"/>
      <point x="248.333" y="57" type="line"/>
      <point x="153" y="57" type="line"/>
      <point x="262.333" y="252" type="line"/>
      <point x="153" y="447" type="line"/>
      <point x="248.333" y="447" type="line"/>
    </contour>
    <contour>
      <point x="420.333" y="252" type="line"/>
      <point x="292.333" y="57" type="line"/>
      <point x="197" y="57" type="line"/>
      <point x="306.333" y="252" type="line"/>
      <point x="197" y="447" type="line"/>
      <point x="292.333" y="447" type="line"/>
    </contour>
  </outline>
</glyph>
<glyph name="Odieresis" format="2">
  <advance width="767"/>
  <unicode hex="00D6"/>
  <anchor x="374" y="797" name="top"/>
  <anchor x="376" y="987" name="top.mkmk"/>
  <outline>
    <contour>
      <point x="52" y="368" type="curve" smooth="yes"/>
      <point x="52" y="585"/>
      <point x="165" y="735.333"/>
      <point x="384.667" y="735.333" type="curve" smooth="yes"/>
      <point x="603.667" y="735.333"/>
      <point x="715.667" y="584.667"/>
      <point x="715.667" y="368" type="curve" smooth="yes"/>
      <point x="715.667" y="152.667"/>
      <point x="605.667" y="-14"/>
      <point x="384.667" y="-14" type="curve" smooth="yes"/>
      <point x="163" y="-14"/>
      <point x="52" y="153"/>
    </contour>
    <contour>
      <point x="171" y="366" type="curve" smooth="yes"/>
      <point x="171" y="200.667"/>
      <point x="230" y="82.6667"/>
      <point x="383.667" y="82.6667" type="curve" smooth="yes"/>
      <point x="544.333" y="82.6667"/>
      <point x="596.667" y="210"/>
      <point x="596.667" y="367.667" type="curve" smooth="yes"/>
      <point x="596.667" y="522.667"/>
      <point x="546" y="639.333"/>
      <point x="384.667" y="639.333" type="curve" smooth="yes"/>
      <point x="234" y="639.333"/>
      <point x="171" y="534.667"/>
    </contour>
    <contour>
      <point x="532.667" y="797" type="line"/>
      <point x="436" y="797" type="line"/>
      <point x="436" y="903.667" type="line"/>
      <point x="532.667" y="903.667" type="line"/>
    </contour>
    <contour>
      <point x="316" y="797" type="line"/>
      <point x="219.333" y="797" type="line"/>
      <point x="219.333" y="903.667" type="line"/>
      <point x="316" y="903.667" type="line"/>
    </contour>
  </outline>
</glyph>
<glyph name="odieresis" format="2">
  <advance width="615"/>
  <unicode hex="00F6"/>
  <anchor x="302.667" y="586.667" name="top"/>
  <anchor x="304.667" y="776.667" name="top.mkmk"/>
  <outline>
    <contour>
      <point x="54.6667" y="250" type="curve" smooth="yes"/>
      <point x="54.6667" y="409.333"/>
      <point x="154.667" y="512.667"/>
      <point x="308.333" y="512.667" type="curve" smooth="yes"/>
      <point x="462" y="512.667"/>
      <point x="560" y="409.333"/>
      <point x="560" y="250" type="curve" smooth="yes"/>
      <point x="560" y="90.3333"/>
      <point x="461.667" y="-12.6667"/>
      <point x="308.333" y="-12.6667" type="curve" smooth="yes"/>
      <point x="154.667" y="-12.6667"/>
      <point x="54.6667" y="90.6667"/>
    </contour>
    <contour>
      <point x="162.333" y="250" type="curve" smooth="yes"/>
      <point x="162.333" y="123"/>
      <point x="214.333" y="59.3333"/>
      <point x="307.333" y="59.3333" type="curve" smooth="yes"/>
      <point x="400.333" y="59.3333"/>
      <point x="452.333" y="123"/>
      <point x="452.333" y="250" type="curve" smooth="yes"/>
      <point x="452.333" y="377"/>
      <point x="400.333" y="440.667"/>
      <point x="307.333" y="440.667" type="curve" smooth="yes"/>
      <point x="214.333" y="440.667"/>
      <point x="162.333" y="377"/>
    </contour>
    <contour>
      <point x="461.333" y="586.667" type="line"/>
      <point x="364.667" y="586.667" type="line"/>
      <point x="364.667" y="693.333" type="line"/>
      <point x="461.333" y="693.333" type="line"/>
    </contour>
    <contour>
      <point x="244.667" y="586.667" type="line"/>
      <point x="148" y="586.667" type="line"/>
      <point x="148" y="693.333" type="line"/>
      <point x="244.667" y="693.333" type="line"/>
    </contour>
  </outline>
</glyph>
<glyph name="hbar" format="2">
  <advance width="583"/>
  <unicode hex="0127"/>
  <outline>
    <component base="h" xOffset="8.66667"/>
    <contour>
      <point x="-31" y="623.333" type="line"/>
      <point x="-31" y="558.333" type="line"/>
      <point x="334" y="558.333" type="line"/>
      <point x="334" y="623.333" type="line"/>
    </contour>
  </outline>
</glyph>
<glyph name="kgreenlandic" format="2">
  <advance width="521"/>
  <unicode hex="0138"/>
  <outline>
    <contour>
      <point x="502.667" y="0" type="line"/>
      <point x="368.667" y="0" type="line"/>
      <point x="178.333" y="265" type="line"/>
      <point x="178.333" y="0" type="line"/>
      <point x="73.3333" y="0" type="line"/>
      <point x="73.3333" y="464.667" type="line"/>
      <point x="178.333" y="500" type="line"/>
      <point x="178.333" y="295" type="line"/>
      <point x="357.333" y="500" type="line"/>
      <point x="486.667" y="500" type="line"/>
      <point x="293.333" y="282.667" type="line"/>
    </contour>
  </outline>
</glyph>
<glyph name="OE" format="2">
  <advance width="1010"/>
  <unicode hex="0152"/>
  <outline>
    <contour>
      <point x="58.6667" y="360.667" type="curve" smooth="yes"/>
      <point x="58.6667" y="573.093"/>
      <point x="181.137" y="736"/>
      <point x="390" y="736" type="curve" smooth="yes"/>
      <point x="429.667" y="736"/>
      <point x="471" y="731"/>
      <point x="506.667" y="722" type="curve"/>
      <point x="949.667" y="722" type="line"/>
      <point x="949.667" y="625.667" type="line"/>
      <point x="632" y="625.667" type="line"/>
      <point x="632" y="418.333" type="line"/>
      <point x="929.667" y="418.333" type="line"/>
      <point x="929.667" y="323.667" type="line"/>
      <point x="632" y="323.667" type="line"/>
      <point x="632" y="96.3333" type="line"/>
      <point x="953" y="96.3333" type="line"/>
      <point x="953" y="0" type="line"/>
      <point x="503" y="0" type="line"/>
      <point x="470.625" y="-10.7089"/>
      <point x="432.051" y="-14.6667"/>
      <point x="390" y="-14.6667" type="curve" smooth="yes"/>
      <point x="181.137" y="-14.6667"/>
      <point x="58.6667" y="148.24"/>
    </contour>
    <contour>
      <point x="178" y="360.333" type="curve" smooth="yes"/>
      <point x="178" y="195.667"/>
      <point x="247.665" y="82.3333"/>
      <point x="390" y="82.3333" type="curve" smooth="yes"/>
      <point x="442.027" y="82.3333"/>
      <point x="485.055" y="93.2111"/>
      <point x="517" y="117" type="curve"/>
      <point x="517" y="611" type="line"/>
      <point x="483.354" y="629.397"/>
      <point x="441.005" y="639"/>
      <point x="390" y="639" type="curve" smooth="yes"/>
      <point x="227.338" y="639"/>
      <point x="178" y="493.766"/>
    </contour>
  </outline>
</glyph>
<glyph name="tbar" format="2">
  <advance width="370"/>
  <unicode hex="0167"/>
  <outline>
    <component base="t" xOffset="10.6667"/>
    <contour>
      <point x="64" y="316.333" type="line"/>
      <point x="64" y="244.667" type="line"/>
      <point x="303.667" y="244.667" type="line"/>
      <point x="303.667" y="316.333" type="line"/>
    </contour>
  </outline>
</glyph>
<glyph name="uni019E" format="2">
  <advance width="608"/>
  <unicode hex="019E"/>
  <outline>
    <contour>
      <point x="73.3333" y="0" type="line"/>
      <point x="73.3333" y="500" type="line"/>
      <point x="178.333" y="500" type="line"/>
      <point x="178.333" y="434.333" type="line"/>
      <point x="214" y="484.667"/>
      <point x="270.333" y="512.667"/>
      <point x="336.333" y="512.667" type="curve" smooth="yes"/>
      <point x="456" y="512.667"/>
      <point x="518.667" y="451"/>
      <point x="518.667" y="331.667" type="curve" smooth="yes"/>
      <point x="518.667" y="-200.333" type="line"/>
      <point x="413.667" y="-200.333" type="line"/>
      <point x="413.667" y="306.333" type="line" smooth="yes"/>
      <point x="413.667" y="401.333"/>
      <point x="378.333" y="445.333"/>
      <point x="301.667" y="445.333" type="curve" smooth="yes"/>
      <point x="229" y="445.333"/>
      <point x="178.333" y="388.667"/>
      <point x="178.333" y="307.667" type="curve" smooth="yes"/>
      <point x="178.333" y="0" type="line"/>
    </contour>
  </outline>
</glyph>
<glyph name="uni01D5" format="2">
  <advance width="717"/>
  <unicode hex="01D5"/>
  <anchor x="358" y="-62.6667" name="bottom"/>
  <anchor x="350" y="797" name="top"/>
  <anchor x="352.667" y="1080.33" name="top.mkmk"/>
  <outline>
    <contour>
      <point x="64" y="314.333" type="curve" smooth="yes"/>
      <point x="64" y="722" type="line"/>
      <point x="179" y="722" type="line"/>
      <point x="179" y="314.333" type="line" smooth="yes"/>
      <point x="179" y="167.667"/>
      <point x="223.333" y="83"/>
      <point x="357.333" y="83" type="curve" smooth="yes"/>
      <point x="491.667" y="83"/>
      <point x="536.333" y="169.667"/>
      <point x="536.333" y="314.333" type="curve" smooth="yes"/>
      <point x="536.333" y="722" type="line"/>
      <point x="651.333" y="722" type="line"/>
      <point x="651.333" y="314.333" type="line" smooth="yes"/>
      <point x="651.333" y="87.3333"/>
      <point x="567.667" y="-13.6667"/>
      <point x="356.333" y="-13.6667" type="curve" smooth="yes"/>
      <point x="145" y="-13.6667"/>
      <point x="64" y="101.667"/>
    </contour>
    <contour>
      <point x="375.333" y="797" type="line"/>
      <point x="278.667" y="797" type="line"/>
      <point x="278.667" y="903.667" type="line"/>
      <point x="375.333" y="903.667" type="line"/>
    </contour>
    <contour>
      <point x="425.333" y="797" type="line"/>
      <point x="328.667" y="797" type="line"/>
      <point x="328.667" y="903.667" type="line"/>
      <point x="425.333" y="903.667" type="line"/>
    </contour>
    <contour>
      <point x="512.667" y="975" type="line"/>
      <point x="192.667" y="975" type="line"/>
      <point x="192.667" y="1054.33" type="line"/>
      <point x="512.667" y="1054.33" type="line"/>
    </contour>
  </outline>
</glyph>
<glyph name="uni01DE" format="2">
  <advance width="736"/>
  <unicode hex="01DE"/>
  <anchor x="368.333" y="-75" name="bottom"/>
  <anchor x="636.333" y="10" name="ogonekUC"/>
  <anchor x="368.333" y="797" name="top"/>
  <anchor x="371" y="1080.33" name="top.mkmk"/>
  <outline>
    <contour>
      <point x="241.333" y="275" type="line"/>
      <point x="490.333" y="275" type="line"/>
      <point x="365.667" y="594.333" type="line"/>
    </contour>
    <contour>
      <point x="13.3333" y="0" type="line"/>
      <point x="305.667" y="721.333" type="line"/>
      <point x="428.667" y="721.333" type="line"/>
      <point x="723.333" y="0" type="line"/>
      <point x="604.333" y="0" type="line"/>
      <point x="532.333" y="180" type="line"/>
      <point x="201.333" y="180" type="line"/>
      <point x="130.333" y="0" type="line"/>
    </contour>
    <contour>
      <point x="527" y="797" type="line"/>
      <point x="430.333" y="797" type="line"/>
      <point x="430.333" y="903.667" type="line"/>
      <point x="527" y="903.667" type="line"/>
    </contour>
    <contour>
      <point x="310.333" y="797" type="line"/>
      <point x="213.667" y="797" type="line"/>
      <point x="213.667" y="903.667" type="line"/>
      <point x="310.333" y="903.667" type="line"/>
    </contour>
    <contour>
      <point x="531" y="978.333" type="line"/>
      <point x="211" y="978.333" type="line"/>
      <point x="211" y="1057.67" type="line"/>
      <point x="531" y="1057.67" type="line"/>
    </contour>
  </outline>
</glyph>
<glyph name="uni0268" format="2">
  <advance width="320"/>
  <unicode hex="0268"/>
  <outline>
    <component base="i" xScale="1" xOffset="24.6667"/>
    <contour>
      <point x="295" y="215.333" type="line"/>
      <point x="25" y="215.333" type="line"/>
      <point x="25" y="284.333" type="line"/>
      <point x="295" y="284.333" type="line"/>
    </contour>
  </outline>
</glyph>
<glyph name="uni0274" format="2">
  <advance width="535"/>
  <unicode hex="0274"/>
  <outline>
    <contour>
      <point x="58.6667" y="0" type="line"/>
      <point x="58.6667" y="500" type="line"/>
      <point x="180.521" y="500" type="line"/>
      <point x="399" y="98.6667" type="line"/>
      <point x="399" y="500" type="line"/>
      <point x="484" y="500" type="line"/>
      <point x="484" y="0" type="line"/>
      <point x="361.15" y="0" type="line"/>
      <point x="143.667" y="401.333" type="line"/>
      <point x="143.667" y="0" type="line"/>
    </contour>
  </outline>
</glyph>
<glyph name="uni0278" format="2">
  <advance width="644"/>
  <unicode hex="0278"/>
  <outline>
    <contour>
      <point x="589.667" y="250" type="curve" smooth="yes"/>
      <point x="589.667" y="395"/>
      <point x="510.667" y="502.667"/>
      <point x="374.667" y="517.667" type="curve"/>
      <point x="374.667" y="722" type="line"/>
      <point x="269.667" y="722" type="line"/>
      <point x="269.667" y="517.667" type="line"/>
      <point x="133.667" y="502.667"/>
      <point x="54.6667" y="395"/>
      <point x="54.6667" y="250" type="curve" smooth="yes"/>
      <point x="54.6667" y="106"/>
      <point x="132.667" y="-1.66667"/>
      <point x="269.667" y="-16.6667" type="curve"/>
      <point x="269.667" y="-200" type="line"/>
      <point x="374.667" y="-200" type="line"/>
      <point x="374.667" y="-14.6667" type="line"/>
      <point x="510.667" y="0.333333"/>
      <point x="589.667" y="105"/>
    </contour>
    <contour>
      <point x="269.667" y="57" type="line"/>
      <point x="207.667" y="74"/>
      <point x="162.667" y="155"/>
      <point x="162.667" y="247" type="curve" smooth="yes"/>
      <point x="162.667" y="339"/>
      <point x="207.667" y="420"/>
      <point x="269.667" y="437" type="curve"/>
    </contour>
    <contour>
      <point x="481.667" y="248" type="curve" smooth="yes"/>
      <point x="481.667" y="156"/>
      <point x="436.667" y="75"/>
      <point x="374.667" y="58" type="curve"/>
      <point x="374.667" y="437" type="line"/>
      <point x="436.667" y="420"/>
      <point x="481.667" y="340"/>
    </contour>
  </outline>
</glyph>
<glyph name="uni027B" format="2">
  <advance width="409"/>
  <unicode hex="027B"/>
  <outline>
    <contour>
      <point x="198.333" y="500" type="line"/>
      <point x="198.333" y="228" type="line" smooth="yes"/>
      <point x="198.333" y="133.333"/>
      <point x="134.667" y="87"/>
      <point x="20" y="87" type="curve"/>
      <point x="20" y="-4.66667" type="line"/>
      <point x="127.333" y="-4.66667"/>
      <point x="167" y="12.6667"/>
      <point x="198.333" y="71" type="curve"/>
      <point x="198.333" y="-36.6667" type="line" smooth="yes"/>
      <point x="198.333" y="-151.667"/>
      <point x="244.667" y="-200"/>
      <point x="360.667" y="-200" type="curve" smooth="yes"/>
      <point x="424.333" y="-200" type="line"/>
      <point x="424.333" y="-119" type="line"/>
      <point x="382.333" y="-119" type="line" smooth="yes"/>
      <point x="321.333" y="-119"/>
      <point x="303.333" y="-97"/>
      <point x="303.333" y="-33" type="curve" smooth="yes"/>
      <point x="303.333" y="500" type="line"/>
    </contour>
  </outline>
</glyph>
<glyph name="uni0289" format="2">
  <advance width="627"/>
  <unicode hex="0289"/>
  <outline>
    <component base="u"/>
    <contour>
      <point x="30.6667" y="232" type="line"/>
      <point x="562.333" y="232" type="line"/>
      <point x="562.333" y="294.333" type="line"/>
      <point x="30.6667" y="294.333" type="line"/>
    </contour>
  </outline>
</glyph>
<glyph name="uni0291" format="2">
  <advance width="595"/>
  <unicode hex="0291"/>
  <outline>
    <contour>
      <point x="54.6667" y="0" type="line"/>
      <point x="54.6667" y="89.7551" type="line"/>
      <point x="320.333" y="425.667" type="line"/>
      <point x="69.6667" y="425.667" type="line"/>
      <point x="69.6667" y="500" type="line"/>
      <point x="435" y="500" type="line"/>
      <point x="435" y="410.292" type="line"/>
      <point x="168" y="74.3333" type="line"/>
      <point x="222.667" y="74.3333" type="line"/>
      <point x="222.667" y="0" type="line"/>
    </contour>
    <contour>
      <point x="472" y="127.536" type="curve" smooth="yes"/>
      <point x="472" y="151.11"/>
      <point x="455" y="166.667"/>
      <point x="429.119" y="166.667" type="curve" smooth="yes"/>
      <point x="377" y="166.667"/>
      <point x="340.667" y="100.17"/>
      <point x="333.667" y="73.5417" type="curve"/>
      <point x="342.667" y="72.2917"/>
      <point x="359.333" y="71.6667"/>
      <point x="371.074" y="71.6667" type="curve" smooth="yes"/>
      <point x="432.892" y="71.6667"/>
      <point x="472" y="92.642"/>
    </contour>
    <contour>
      <point x="140" y="0" type="line"/>
      <point x="140" y="74.3333" type="line"/>
      <point x="264" y="74.3333" type="line"/>
      <point x="293.28" y="182.438"/>
      <point x="366" y="226.333"/>
      <point x="445.38" y="226.333" type="curve" smooth="yes"/>
      <point x="503.641" y="226.333"/>
      <point x="552" y="199.302"/>
      <point x="552" y="138.947" type="curve" smooth="yes"/>
      <point x="552" y="41.1581"/>
      <point x="432.333" y="-3.66667"/>
      <point x="348.564" y="-3.66667" type="curve" smooth="yes"/>
      <point x="336.667" y="-3.66667"/>
      <point x="317.667" y="-2.66667"/>
      <point x="310.667" y="-0.666667" type="curve"/>
      <point x="285.667" y="-130" type="line"/>
      <point x="228" y="-130" type="line"/>
      <point x="250" y="0" type="line"/>
    </contour>
  </outline>
</glyph>
<glyph name="uni02A1" format="2">
  <advance width="489"/>
  <unicode hex="02A1"/>
  <outline>
    <component base="uni0294"/>
    <contour>
      <point x="370" y="284.333" type="line"/>
      <point x="31" y="284.333" type="line"/>
      <point x="31" y="215.333" type="line"/>
      <point x="370" y="215.333" type="line"/>
    </contour>
  </outline>
</glyph>
<glyph name="caron" format="2">
  <advance width="299"/>
  <unicode hex="02C7"/>
  <anchor x="150" y="575" name="_top"/>
  <outline>
    <contour>
      <point x="300" y="773.333" type="line"/>
      <point x="210" y="600" type="line"/>
      <point x="90" y="600" type="line"/>
      <point x="0" y="773.333" type="line"/>
      <point x="63.3333" y="773.333" type="line"/>
      <point x="150" y="663.333" type="line"/>
      <point x="236.667" y="773.333" type="line"/>
    </contour>
  </outline>
</glyph>
<glyph name="ogonek" format="2">
  <advance width="202"/>
  <unicode hex="02DB"/>
  <outline>
    <contour>
      <point x="115.667" y="-222" type="curve"/>
      <point x="64" y="-223.333"/>
      <point x="33.3333" y="-203.333"/>
      <point x="29.3333" y="-172" type="curve"/>
      <point x="10.6667" y="-138"/>
      <point x="26" y="-91"/>
      <point x="40.6667" y="-60.6667" type="curve"/>
      <point x="42.938" y="-41.3954"/>
      <point x="65.1381" y="-15.5712"/>
      <point x="73.6667" y="-6.66667" type="curve"/>
      <point x="106.667" y="0" type="line"/>
      <point x="96.3219" y="-12"/>
      <point x="86.5373" y="-44"/>
      <point x="89.3333" y="-72.6667" type="curve"/>
      <point x="79.3333" y="-100.667"/>
      <point x="84" y="-122.667"/>
      <point x="106" y="-133" type="curve"/>
      <point x="111.34" y="-142.133"/>
      <point x="131.912" y="-143.942"/>
      <point x="149" y="-144" type="curve"/>
      <point x="161.667" y="-189.333" type="line"/>
      <point x="147.667" y="-195.933"/>
      <point x="122.333" y="-219.831"/>
    </contour>
  </outline>
</glyph>
<glyph name="gravecomb" format="2">
  <advance width="1"/>
  <unicode hex="0300"/>
  <anchor x="-179" y="600" name="_top"/>
  <anchor x="-181.667" y="600" name="_top.mkmk"/>
  <outline>
    <contour>
      <point x="-147.333" y="600" type="line"/>
      <point x="-211.333" y="600" type="line"/>
      <point x="-355" y="774" type="line"/>
      <point x="-244.333" y="774" type="line"/>
    </contour>
  </outline>
</glyph>
<glyph name="uni0306" format="2">
  <advance width="1"/>
  <unicode hex="0306"/>
  <anchor x="-299.333" y="600" name="_top"/>
  <outline>
    <contour>
      <point x="-445.333" y="728" type="curve"/>
      <point x="-390.667" y="728" type="line"/>
      <point x="-386.667" y="697.333"/>
      <point x="-338.333" y="669.333"/>
      <point x="-297.667" y="669.333" type="curve" smooth="yes"/>
      <point x="-257" y="669.333"/>
      <point x="-208" y="697.333"/>
      <point x="-204" y="728" type="curve"/>
      <point x="-150.667" y="728" type="line"/>
      <point x="-161.333" y="656.333"/>
      <point x="-221.333" y="600"/>
      <point x="-298" y="600" type="curve" smooth="yes"/>
      <point x="-378" y="600"/>
      <point x="-437.333" y="654"/>
    </contour>
  </outline>
</glyph>
<glyph name="hookabovecomb" format="2">
  <advance width="167"/>
  <unicode hex="0309"/>
  <outline>
    <contour>
      <point x="-146" y="698.333" type="curve" smooth="yes"/>
      <point x="-146" y="650.667"/>
      <point x="-178" y="618"/>
      <point x="-242" y="600" type="curve"/>
      <point x="-242" y="536" type="line"/>
      <point x="-312" y="536" type="line"/>
      <point x="-312" y="622" type="line"/>
      <point x="-248" y="627"/>
      <point x="-216" y="654"/>
      <point x="-216" y="697.333" type="curve" smooth="yes"/>
      <point x="-216" y="731"/>
      <point x="-238" y="751"/>
      <point x="-273.333" y="751" type="curve" smooth="yes"/>
      <point x="-294" y="751"/>
      <point x="-315" y="740"/>
      <point x="-318" y="714" type="curve"/>
      <point x="-388" y="714" type="line"/>
      <point x="-379.333" y="772.333"/>
      <point x="-332.667" y="801"/>
      <point x="-273.333" y="801" type="curve" smooth="yes"/>
      <point x="-198" y="801"/>
      <point x="-146" y="759"/>
    </contour>
  </outline>
</glyph>
<glyph name="uni030B" format="2">
  <advance width="-2"/>
  <unicode hex="030B"/>
  <outline>
    <contour>
      <point x="-233.667" y="777.333" type="line"/>
      <point x="-354.667" y="599.667" type="line"/>
      <point x="-420.667" y="599.667" type="line"/>
      <point x="-343.667" y="777.333" type="line"/>
    </contour>
    <contour>
      <point x="-70.3333" y="777.667" type="line"/>
      <point x="-191.333" y="599.667" type="line"/>
      <point x="-257.333" y="599.667" type="line"/>
      <point x="-180.333" y="777.667" type="line"/>
    </contour>
  </outline>
</glyph>
<glyph name="uni030C" format="2">
  <advance width="1"/>
  <unicode hex="030C"/>
  <anchor x="-293" y="600" name="_top"/>
  <anchor x="-293.333" y="600" name="_top.mkmk"/>
  <outline>
    <contour>
      <point x="-147" y="773.333" type="line"/>
      <point x="-237" y="600" type="line"/>
      <point x="-357" y="600" type="line"/>
      <point x="-447" y="773.333" type="line"/>
      <point x="-383.667" y="773.333" type="line"/>
      <point x="-297" y="663.333" type="line"/>
      <point x="-210.333" y="773.333" type="line"/>
    </contour>
  </outline>
</glyph>
<glyph name="uni0311" format="2">
  <unicode hex="0311"/>
  <anchor x="-290" y="600" name="_top"/>
  <outline>
    <contour>
      <point x="-141.667" y="600" type="curve"/>
      <point x="-215" y="600" type="line"/>
      <point x="-221.067" y="634.679"/>
      <point x="-259.585" y="656.333"/>
      <point x="-295" y="656.333" type="curve" smooth="yes"/>
      <point x="-330.415" y="656.333"/>
      <point x="-368.933" y="634.679"/>
      <point x="-375" y="600" type="curve"/>
      <point x="-450.333" y="600" type="line"/>
      <point x="-441.24" y="676.664"/>
      <point x="-375.744" y="730.333"/>
      <point x="-296" y="730.333" type="curve" smooth="yes"/>
      <point x="-218.676" y="730.333"/>
      <point x="-153.827" y="676.002"/>
    </contour>
  </outline>
</glyph>
<glyph name="uni0325" format="2">
  <advance width="1"/>
  <unicode hex="0325"/>
  <outline>
    <contour>
      <point x="-297" y="-95.6667" type="curve" smooth="yes"/>
      <point x="-235" y="-95.6667"/>
      <point x="-183.333" y="-147.333"/>
      <point x="-183.333" y="-209.333" type="curve" smooth="yes"/>
      <point x="-183.333" y="-271.333"/>
      <point x="-235" y="-323"/>
      <point x="-297" y="-323" type="curve" smooth="yes"/>
      <point x="-359" y="-323"/>
      <point x="-410.667" y="-271.333"/>
      <point x="-410.667" y="-209.333" type="curve" smooth="yes"/>
      <point x="-410.667" y="-147.333"/>
      <point x="-359" y="-95.6667"/>
    </contour>
    <contour>
      <point x="-355.613" y="-209.333" type="curve" smooth="yes"/>
      <point x="-355.613" y="-242.819"/>
      <point x="-330.486" y="-267.947"/>
      <point x="-297" y="-267.947" type="curve" smooth="yes"/>
      <point x="-263.34" y="-267.947"/>
      <point x="-238.387" y="-242.993"/>
      <point x="-238.387" y="-209.333" type="curve" smooth="yes"/>
      <point x="-238.387" y="-175.798"/>
      <point x="-263.464" y="-150.72"/>
      <point x="-297" y="-150.72" type="curve" smooth="yes"/>
      <point x="-330.224" y="-150.72"/>
      <point x="-355.613" y="-176.109"/>
    </contour>
  </outline>
</glyph>
<glyph name="uni033B" format="2">
  <advance width="1"/>
  <unicode hex="033B"/>
  <outline>
    <contour>
      <point x="-232.323" y="-239.657" type="line"/>
      <point x="-266.343" y="-146.323" type="line"/>
      <point x="-359.677" y="-180.343" type="line"/>
      <point x="-325.657" y="-273.677" type="line"/>
    </contour>
    <contour>
      <point x="-173.863" y="-234.53" type="line"/>
      <point x="-320.53" y="-332.137" type="line"/>
      <point x="-418.137" y="-185.47" type="line"/>
      <point x="-271.47" y="-87.8633" type="line"/>
    </contour>
  </outline>
</glyph>
<glyph name="uni033C" format="2">
  <advance width="1"/>
  <unicode hex="033C"/>
  <outline>
    <contour>
      <point x="-127.667" y="-240" type="curve"/>
      <point x="-154.667" y="-239.333" type="line"/>
      <point x="-163.667" y="-209.333"/>
      <point x="-198" y="-165.333"/>
      <point x="-220.667" y="-165.333" type="curve" smooth="yes"/>
      <point x="-248.333" y="-165.333"/>
      <point x="-260.333" y="-176"/>
      <point x="-284.333" y="-229" type="curve"/>
      <point x="-311.667" y="-229" type="line"/>
      <point x="-336.667" y="-176"/>
      <point x="-347.667" y="-165.333"/>
      <point x="-375.333" y="-165.333" type="curve" smooth="yes"/>
      <point x="-400.667" y="-165.333"/>
      <point x="-421.333" y="-188.333"/>
      <point x="-441.333" y="-239.333" type="curve"/>
      <point x="-466.333" y="-239.333" type="line"/>
      <point x="-466.333" y="-115.667"/>
      <point x="-444" y="-93.3333"/>
      <point x="-375.333" y="-93.3333" type="curve" smooth="yes"/>
      <point x="-344.333" y="-93.3333"/>
      <point x="-316" y="-118"/>
      <point x="-297" y="-155" type="curve"/>
      <point x="-278" y="-118"/>
      <point x="-249.667" y="-93.3333"/>
      <point x="-218.667" y="-93.3333" type="curve" smooth="yes"/>
      <point x="-150" y="-93.3333"/>
      <point x="-127.667" y="-116.333"/>
    </contour>
  </outline>
</glyph>
<glyph name="tonos" format="2">
  <advance width="181"/>
  <unicode hex="0384"/>
  <anchor x="14.6667" y="511.667" name="_tonos.top"/>
  <anchor x="16.3333" y="511.667" name="_top"/>
  <outline>
    <contour>
      <point x="139.912" y="722" type="line"/>
      <point x="50.0004" y="511.825" type="line"/>
      <point x="-19.9996" y="511.825" type="line"/>
      <point x="29.912" y="722" type="line"/>
    </contour>
  </outline>
</glyph>
<glyph name="Gamma" format="2">
  <advance width="528"/>
  <unicode hex="0393"/>
  <outline>
    <contour>
      <point x="496.333" y="625.667" type="line"/>
      <point x="179" y="625.667" type="line"/>
      <point x="179" y="0" type="line"/>
      <point x="63.3333" y="0" type="line"/>
      <point x="63.3333" y="722" type="line"/>
      <point x="496.333" y="722" type="line"/>
    </contour>
  </outline>
</glyph>
<glyph name="Zeta" format="2">
  <advance width="628"/>
  <unicode hex="0396"/>
  <outline>
    <contour>
      <point x="580" y="0" type="line"/>
      <point x="48.3333" y="0" type="line"/>
      <point x="48.3333" y="115" type="line"/>
      <point x="439.667" y="625.667" type="line"/>
      <point x="69" y="625.667" type="line"/>
      <point x="69" y="722" type="line"/>
      <point x="570.667" y="722" type="line"/>
      <point x="570.667" y="607" type="line"/>
      <point x="179.333" y="96.3333" type="line"/>
      <point x="580" y="96.3333" type="line"/>
    </contour>
  </outline>
</glyph>
<glyph name="Theta" format="2">
  <advance width="754"/>
  <unicode hex="0398"/>
  <outline>
    <component base="Omicron"/>
    <contour>
      <point x="554.667" y="327.667" type="line"/>
      <point x="211.333" y="327.667" type="line"/>
      <point x="211.333" y="420.667" type="line"/>
      <point x="554.667" y="420.667" type="line"/>
    </contour>
  </outline>
</glyph>
<glyph name="Xi" format="2">
  <advance width="669"/>
  <unicode hex="039E"/>
  <outline>
    <contour>
      <point x="609" y="614.667" type="line"/>
      <point x="61" y="614.667" type="line"/>
      <point x="61" y="722" type="line"/>
      <point x="609" y="722" type="line"/>
    </contour>
    <contour>
      <point x="508" y="316.667" type="line"/>
      <point x="161" y="316.667" type="line"/>
      <point x="161" y="424" type="line"/>
      <point x="508" y="424" type="line"/>
    </contour>
    <contour>
      <point x="609" y="0" type="line"/>
      <point x="61" y="0" type="line"/>
      <point x="61" y="107.333" type="line"/>
      <point x="609" y="107.333" type="line"/>
    </contour>
  </outline>
</glyph>
<glyph name="beta" format="2">
  <advance width="608"/>
  <unicode hex="03B2"/>
  <outline>
    <contour>
      <point x="301.836" y="657.333" type="curve" smooth="yes"/>
      <point x="225.123" y="657.333"/>
      <point x="184.333" y="596.803"/>
      <point x="184.333" y="510.333" type="curve" smooth="yes"/>
      <point x="184.333" y="203.818" type="line" smooth="yes"/>
      <point x="184.333" y="127.337"/>
      <point x="237.02" y="63"/>
      <point x="320.611" y="63" type="curve" smooth="yes"/>
      <point x="395.428" y="63"/>
      <point x="446.333" y="115.321"/>
      <point x="446.333" y="195.5" type="curve" smooth="yes"/>
      <point x="446.333" y="264.6"/>
      <point x="402.815" y="329"/>
      <point x="336.606" y="329" type="curve" smooth="yes"/>
      <point x="250.406" y="329" type="line"/>
      <point x="250.406" y="413" type="line"/>
      <point x="322.775" y="413" type="line" smooth="yes"/>
      <point x="377.005" y="413"/>
      <point x="410.333" y="464.699"/>
      <point x="410.333" y="541.667" type="curve" smooth="yes"/>
      <point x="410.333" y="598.637"/>
      <point x="365.25" y="657.333"/>
    </contour>
    <contour>
      <point x="297.55" y="734.667" type="curve" smooth="yes"/>
      <point x="422.006" y="734.667"/>
      <point x="515.333" y="651.982"/>
      <point x="515.333" y="541.766" type="curve" smooth="yes"/>
      <point x="515.333" y="473.033"/>
      <point x="480.407" y="412.82"/>
      <point x="411.567" y="385.509" type="curve"/>
      <point x="504.899" y="360.074"/>
      <point x="553.333" y="288.841"/>
      <point x="553.333" y="193.868" type="curve" smooth="yes"/>
      <point x="553.333" y="72.6347"/>
      <point x="470.902" y="-12.6667"/>
      <point x="336.108" y="-12.6667" type="curve" smooth="yes"/>
      <point x="282.497" y="-12.6667"/>
      <point x="226.009" y="10.6466"/>
      <point x="184.333" y="61.9627" type="curve"/>
      <point x="184.333" y="-195.333" type="line"/>
      <point x="79.3333" y="-195.333" type="line"/>
      <point x="79.3333" y="541" type="line" smooth="yes"/>
      <point x="79.3333" y="659.551"/>
      <point x="174.409" y="734.667"/>
    </contour>
  </outline>
</glyph>
<glyph name="gamma" format="2">
  <advance width="551"/>
  <unicode hex="03B3"/>
  <outline>
    <contour>
      <point x="148.667" y="467" type="curve" smooth="yes"/>
      <point x="295.15" y="126" type="line"/>
      <point x="273.15" y="126" type="line"/>
      <point x="428.333" y="502" type="line"/>
      <point x="533.667" y="502" type="line"/>
      <point x="335.667" y="27" type="line"/>
      <point x="335.667" y="-200" type="line"/>
      <point x="230.667" y="-200" type="line"/>
      <point x="230.667" y="33" type="line"/>
      <point x="70" y="399" type="line" smooth="yes"/>
      <point x="61.1477" y="419.165"/>
      <point x="49.3468" y="426.65"/>
      <point x="31.3256" y="427.872" type="curve" smooth="yes"/>
      <point x="22.9762" y="428.439"/>
      <point x="8.96426" y="428"/>
      <point x="2.66667" y="427" type="curve"/>
      <point x="2.66667" y="511" type="line"/>
      <point x="20.1454" y="513.496"/>
      <point x="35.5349" y="514"/>
      <point x="44.9126" y="514" type="curve" smooth="yes"/>
      <point x="89.1326" y="514"/>
      <point x="133.288" y="502.799"/>
    </contour>
  </outline>
</glyph>
<glyph name="eta" format="2">
  <advance width="608"/>
  <unicode hex="03B7"/>
  <anchor x="286.667" y="600" name="tonos.top"/>
  <outline>
    <contour>
      <point x="359" y="512" type="curve" smooth="yes"/>
      <point x="449.003" y="512"/>
      <point x="531" y="456.871"/>
      <point x="531" y="361" type="curve" smooth="yes"/>
      <point x="531" y="-200" type="line"/>
      <point x="426" y="-200" type="line"/>
      <point x="426" y="322.667" type="line" smooth="yes"/>
      <point x="426" y="386.543"/>
      <point x="400.034" y="434"/>
      <point x="325" y="434" type="curve" smooth="yes"/>
      <point x="250.333" y="434"/>
      <point x="196" y="371.397"/>
      <point x="196" y="290" type="curve" smooth="yes"/>
      <point x="196" y="0" type="line"/>
      <point x="91" y="0" type="line"/>
      <point x="91" y="403.333" type="line" smooth="yes"/>
      <point x="91" y="418.63"/>
      <point x="70" y="432.333"/>
      <point x="52" y="432.333" type="curve" smooth="yes"/>
      <point x="44.9234" y="432.333"/>
      <point x="35.0541" y="430.85"/>
      <point x="32" y="430.333" type="curve"/>
      <point x="32" y="504" type="line"/>
      <point x="52.67" y="510.12"/>
      <point x="64.3297" y="512"/>
      <point x="85" y="512" type="curve" smooth="yes"/>
      <point x="143" y="512"/>
      <point x="186" y="484"/>
      <point x="189" y="428" type="curve"/>
      <point x="230" y="488.667"/>
      <point x="290.333" y="512"/>
    </contour>
  </outline>
</glyph>
<glyph name="kappa" format="2">
  <advance width="563"/>
  <unicode hex="03BA"/>
  <outline>
    <contour>
      <point x="185.333" y="0" type="line"/>
      <point x="185.333" y="500" type="line"/>
      <point x="80.3333" y="500" type="line"/>
      <point x="80.3333" y="0" type="line"/>
    </contour>
    <contour>
      <point x="229.269" y="271.429" type="line"/>
      <point x="412.667" y="0" type="line"/>
      <point x="539.667" y="0" type="line"/>
      <point x="315.238" y="330.408" type="line"/>
    </contour>
    <contour>
      <point x="527" y="500" type="line"/>
      <point x="390.333" y="500" type="line"/>
      <point x="159.259" y="288.882" type="line"/>
      <point x="159.204" y="168.031" type="line"/>
    </contour>
  </outline>
</glyph>
<glyph name="mu" format="2">
  <advance width="645"/>
  <unicode hex="03BC"/>
  <outline>
    <contour>
      <point x="68.3333" y="-198.667" type="line"/>
      <point x="68.3333" y="500.667" type="line"/>
      <point x="173.333" y="500.667" type="line"/>
      <point x="173.333" y="176.667" type="line" smooth="yes"/>
      <point x="173.333" y="108.667"/>
      <point x="217" y="57.6667"/>
      <point x="284" y="57.6667" type="curve" smooth="yes"/>
      <point x="357.333" y="57.6667"/>
      <point x="407.333" y="114.667"/>
      <point x="407.333" y="189.667" type="curve" smooth="yes"/>
      <point x="407.333" y="500.667" type="line"/>
      <point x="512.333" y="500.667" type="line"/>
      <point x="512.333" y="138.333" type="line" smooth="yes"/>
      <point x="512.333" y="87.6667"/>
      <point x="525.667" y="62.6667"/>
      <point x="564" y="62.6667" type="curve" smooth="yes"/>
      <point x="584.622" y="62.6667"/>
      <point x="604.652" y="66.9328"/>
      <point x="623" y="74.6667" type="curve"/>
      <point x="623" y="3.33333" type="line"/>
      <point x="597.008" y="-8.02369"/>
      <point x="566.538" y="-13.3333"/>
      <point x="537.333" y="-13.3333" type="curve" smooth="yes"/>
      <point x="468.137" y="-13.3333"/>
      <point x="437.931" y="6"/>
      <point x="414.333" y="70" type="curve"/>
      <point x="382.667" y="14.3333"/>
      <point x="335.333" y="-13"/>
      <point x="271.333" y="-13" type="curve" smooth="yes"/>
      <point x="233.667" y="-13"/>
      <point x="201" y="-3"/>
      <point x="173.333" y="16.3333" type="curve"/>
      <point x="173.333" y="-198.667" type="line"/>
    </contour>
  </outline>
</glyph>
<glyph name="sigma1" format="2">
  <advance width="579"/>
  <unicode hex="03C2"/>
  <outline>
    <contour>
      <point x="303.267" y="512" type="curve" smooth="yes"/>
      <point x="418.537" y="512"/>
      <point x="519.411" y="450.599"/>
      <point x="524.667" y="311.333" type="curve"/>
      <point x="422.333" y="311.333" type="line"/>
      <point x="415.842" y="414.012"/>
      <point x="350.376" y="437.873"/>
      <point x="292.086" y="437.667" type="curve" smooth="yes"/>
      <point x="200.231" y="437.341"/>
      <point x="160" y="364.667"/>
      <point x="160" y="278.206" type="curve" smooth="yes"/>
      <point x="160" y="192"/>
      <point x="211.293" y="137.751"/>
      <point x="269.667" y="121.333" type="curve" smooth="yes"/>
      <point x="447.795" y="71.2347" type="line" smooth="yes"/>
      <point x="487.591" y="60.042"/>
      <point x="505.919" y="25.8193"/>
      <point x="505.611" y="-20.5792" type="curve" smooth="yes"/>
      <point x="505.314" y="-65.2437"/>
      <point x="487.667" y="-154"/>
      <point x="463.667" y="-200" type="curve"/>
      <point x="367" y="-200" type="line"/>
      <point x="387.475" y="-155.886"/>
      <point x="409" y="-75.324"/>
      <point x="409" y="-49.906" type="curve" smooth="yes"/>
      <point x="409" y="-26.0639"/>
      <point x="397.225" y="-11.1822"/>
      <point x="382" y="-7.33333" type="curve" smooth="yes"/>
      <point x="217.857" y="35.2257" type="line"/>
      <point x="93.1493" y="66.2624"/>
      <point x="54.6667" y="169"/>
      <point x="54.6667" y="270.043" type="curve" smooth="yes"/>
      <point x="54.6667" y="422.452"/>
      <point x="150.436" y="512"/>
    </contour>
  </outline>
</glyph>
<glyph name="sigma" format="2">
  <advance width="608"/>
  <unicode hex="03C3"/>
  <outline>
    <contour>
      <point x="302" y="512.667" type="curve" smooth="yes"/>
      <point x="149.609" y="512.667"/>
      <point x="46" y="402.131"/>
      <point x="46" y="249.511" type="curve" smooth="yes"/>
      <point x="46" y="97.7787"/>
      <point x="150.355" y="-16"/>
      <point x="301.744" y="-16" type="curve" smooth="yes"/>
      <point x="453.606" y="-16"/>
      <point x="547.979" y="98.4554"/>
      <point x="548" y="249.545" type="curve" smooth="yes"/>
      <point x="548.021" y="401.799"/>
      <point x="452.68" y="512.667"/>
    </contour>
    <contour>
      <point x="302" y="435.333" type="curve" smooth="yes"/>
      <point x="396.355" y="435.333"/>
      <point x="441.667" y="369.594"/>
      <point x="441.667" y="250.175" type="curve" smooth="yes"/>
      <point x="441.667" y="130.713"/>
      <point x="396.2" y="58.6667"/>
      <point x="302.268" y="58.6667" type="curve" smooth="yes"/>
      <point x="208.492" y="58.6667"/>
      <point x="150.333" y="130.779"/>
      <point x="150.333" y="249.534" type="curve" smooth="yes"/>
      <point x="150.333" y="368.876"/>
      <point x="208.18" y="435.333"/>
    </contour>
    <contour>
      <point x="460.667" y="421" type="line"/>
      <point x="599.333" y="421" type="line"/>
      <point x="599.333" y="500" type="line"/>
      <point x="361.333" y="500" type="line"/>
    </contour>
  </outline>
</glyph>
<glyph name="tau" format="2">
  <advance width="509"/>
  <unicode hex="03C4"/>
  <outline>
    <contour>
      <point x="26.6667" y="420.333" type="line"/>
      <point x="26.6667" y="501" type="line"/>
      <point x="482.667" y="501" type="line"/>
      <point x="482.667" y="423.333" type="line"/>
      <point x="307.667" y="423.333" type="line"/>
      <point x="307.667" y="121.163" type="line" smooth="yes"/>
      <point x="307.667" y="78.2435"/>
      <point x="314.172" y="61"/>
      <point x="363.667" y="61" type="curve" smooth="yes"/>
      <point x="373.667" y="61"/>
      <point x="382.667" y="63.0054"/>
      <point x="391.667" y="65.0108" type="curve"/>
      <point x="391.667" y="-1.1001" type="line"/>
      <point x="372.667" y="-6.02867"/>
      <point x="338.667" y="-8"/>
      <point x="319.667" y="-8" type="curve" smooth="yes"/>
      <point x="237.667" y="-8"/>
      <point x="202.667" y="21.5714"/>
      <point x="202.667" y="83.0599" type="curve" smooth="yes"/>
      <point x="202.667" y="420.333" type="line"/>
    </contour>
  </outline>
</glyph>
<glyph name="theta1" format="2">
  <advance width="607"/>
  <unicode hex="03D1"/>
  <outline>
    <contour>
      <point x="259" y="609" type="curve" smooth="yes"/>
      <point x="251.333" y="609" type="line" smooth="yes"/>
      <point x="214.681" y="609"/>
      <point x="184.667" y="575.723"/>
      <point x="184.667" y="537.056" type="curve" smooth="yes"/>
      <point x="184.667" y="469.124"/>
      <point x="277.27" y="404.391"/>
      <point x="375" y="387.261" type="curve" smooth="yes"/>
      <point x="423" y="378.58" type="line"/>
      <point x="422" y="396.612" type="line" smooth="yes"/>
      <point x="415.614" y="511.769"/>
      <point x="345.401" y="609"/>
    </contour>
    <contour>
      <point x="260.557" y="694.996" type="curve" smooth="yes"/>
      <point x="444.153" y="694.686"/>
      <point x="532.083" y="551.775"/>
      <point x="532.333" y="256.365" type="curve" smooth="yes"/>
      <point x="532.481" y="81.8847"/>
      <point x="444.473" y="-12.6667"/>
      <point x="290.177" y="-12.6667" type="curve" smooth="yes"/>
      <point x="163.58" y="-12.6667"/>
      <point x="73.3333" y="54.2609"/>
      <point x="73.3333" y="155.178" type="curve" smooth="yes"/>
      <point x="73.3333" y="318.164" type="line"/>
      <point x="178.333" y="318.164" type="line"/>
      <point x="178.333" y="159.185" type="line" smooth="yes"/>
      <point x="178.333" y="103.29"/>
      <point x="227.063" y="62"/>
      <point x="290.704" y="62" type="curve" smooth="yes"/>
      <point x="379.851" y="62"/>
      <point x="427.333" y="120.276"/>
      <point x="427.333" y="216.295" type="curve" smooth="yes"/>
      <point x="427.333" y="319.476" type="line"/>
      <point x="223.089" y="337.293"/>
      <point x="83.3333" y="441.387"/>
      <point x="83.3333" y="560.591" type="curve" smooth="yes"/>
      <point x="83.3333" y="644.995"/>
      <point x="151.579" y="695.18"/>
    </contour>
  </outline>
</glyph>
<glyph name="uni0413" format="2">
  <advance width="531"/>
  <unicode hex="0413"/>
  <outline>
    <contour>
      <point x="499.667" y="625.667" type="line"/>
      <point x="182.333" y="625.667" type="line"/>
      <point x="182.333" y="0" type="line"/>
      <point x="66.6667" y="0" type="line"/>
      <point x="66.6667" y="722" type="line"/>
      <point x="499.667" y="722" type="line"/>
    </contour>
  </outline>
</glyph>
<glyph name="uni0418" format="2">
  <advance width="701"/>
  <unicode hex="0418"/>
  <outline>
    <contour>
      <point x="66.6667" y="0" type="line"/>
      <point x="66.6667" y="722" type="line"/>
      <point x="180.667" y="722" type="line"/>
      <point x="180.667" y="159.333" type="line"/>
      <point x="481.667" y="722" type="line"/>
      <point x="634.667" y="722" type="line"/>
      <point x="634.667" y="0" type="line"/>
      <point x="520.667" y="0" type="line"/>
      <point x="520.667" y="563" type="line"/>
      <point x="218.333" y="0" type="line"/>
    </contour>
  </outline>
</glyph>
<glyph name="uni041F" format="2">
  <advance width="689"/>
  <unicode hex="041F"/>
  <outline>
    <contour>
      <point x="622.333" y="0" type="line"/>
      <point x="506.667" y="0" type="line"/>
      <point x="506.667" y="624" type="line"/>
      <point x="182.333" y="624" type="line"/>
      <point x="182.333" y="0" type="line"/>
      <point x="66.6667" y="0" type="line"/>
      <point x="66.6667" y="722" type="line"/>
      <point x="622.333" y="722" type="line"/>
    </contour>
  </outline>
</glyph>
<glyph name="uni0424" format="2">
  <advance width="743"/>
  <unicode hex="0424"/>
  <outline>
    <contour>
      <point x="160.667" y="371.333" type="curve" smooth="yes"/>
      <point x="160.667" y="217.333"/>
      <point x="211.333" y="164"/>
      <point x="296.667" y="163" type="curve"/>
      <point x="310" y="163" type="line"/>
      <point x="310" y="554" type="line"/>
      <point x="296" y="554" type="line"/>
      <point x="211.333" y="553"/>
      <point x="160.667" y="504.333"/>
    </contour>
    <contour>
      <point x="46" y="372" type="curve" smooth="yes"/>
      <point x="46" y="572.667"/>
      <point x="152" y="653.333"/>
      <point x="298.667" y="653.333" type="curve" smooth="yes"/>
      <point x="310" y="653.333" type="line"/>
      <point x="310" y="721" type="line"/>
      <point x="425.667" y="721" type="line"/>
      <point x="425.667" y="652.333" type="line"/>
      <point x="437" y="652.333" type="line" smooth="yes"/>
      <point x="590" y="652.333"/>
      <point x="699.667" y="572.667"/>
      <point x="699.667" y="372" type="curve" smooth="yes"/>
      <point x="699.667" y="142.333"/>
      <point x="591" y="64"/>
      <point x="437.667" y="64" type="curve" smooth="yes"/>
      <point x="425.667" y="64" type="line"/>
      <point x="425.667" y="-1" type="line"/>
      <point x="310" y="-1" type="line"/>
      <point x="310" y="64" type="line"/>
      <point x="298" y="64" type="line" smooth="yes"/>
      <point x="149.667" y="64"/>
      <point x="46" y="142"/>
    </contour>
    <contour>
      <point x="425.667" y="164" type="line"/>
      <point x="439.667" y="164" type="line"/>
      <point x="531.333" y="165"/>
      <point x="585" y="217.667"/>
      <point x="585" y="372" type="curve" smooth="yes"/>
      <point x="585" y="504.667"/>
      <point x="530.333" y="554.667"/>
      <point x="439.667" y="554.667" type="curve" smooth="yes"/>
      <point x="425.667" y="554.667" type="line"/>
    </contour>
  </outline>
</glyph>
<glyph name="uni042C" format="2">
  <advance width="600"/>
  <unicode hex="042C"/>
  <outline>
    <contour>
      <point x="275.667" y="322" type="curve" smooth="yes"/>
      <point x="177.667" y="322" type="line"/>
      <point x="177.667" y="97.6667" type="line"/>
      <point x="275.667" y="97.6667" type="line" smooth="yes"/>
      <point x="378" y="97.6667"/>
      <point x="445.333" y="119"/>
      <point x="445.333" y="211.333" type="curve" smooth="yes"/>
      <point x="445.333" y="303.333"/>
      <point x="379" y="322"/>
    </contour>
    <contour>
      <point x="560" y="211.333" type="curve" smooth="yes"/>
      <point x="560" y="37"/>
      <point x="436.333" y="0.666667"/>
      <point x="272.667" y="0.666667" type="curve" smooth="yes"/>
      <point x="62" y="0.666667" type="line"/>
      <point x="62" y="722" type="line"/>
      <point x="177.667" y="722" type="line"/>
      <point x="177.667" y="422" type="line"/>
      <point x="272.667" y="422" type="line" smooth="yes"/>
      <point x="439.667" y="422"/>
      <point x="560" y="379.333"/>
    </contour>
  </outline>
</glyph>
<glyph name="uni0432" format="2">
  <advance width="540"/>
  <unicode hex="0432"/>
  <outline>
    <contour>
      <point x="175" y="295" type="line"/>
      <point x="280.667" y="295" type="line" smooth="yes"/>
      <point x="333.667" y="295"/>
      <point x="360.333" y="318.333"/>
      <point x="360.333" y="361.333" type="curve" smooth="yes"/>
      <point x="360.333" y="403.333"/>
      <point x="335.333" y="425"/>
      <point x="289.667" y="425" type="curve" smooth="yes"/>
      <point x="175" y="425" type="line"/>
    </contour>
    <contour>
      <point x="175" y="75" type="line"/>
      <point x="302" y="75" type="line" smooth="yes"/>
      <point x="354" y="75"/>
      <point x="383.667" y="97.3333"/>
      <point x="383.667" y="146.919" type="curve" smooth="yes"/>
      <point x="383.667" y="199"/>
      <point x="350.667" y="220"/>
      <point x="290" y="220" type="curve" smooth="yes"/>
      <point x="175" y="220" type="line"/>
    </contour>
    <contour>
      <point x="73.3333" y="0" type="line"/>
      <point x="73.3333" y="500" type="line"/>
      <point x="308" y="500" type="line" smooth="yes"/>
      <point x="405" y="500"/>
      <point x="464.667" y="457.667"/>
      <point x="464.667" y="379.667" type="curve" smooth="yes"/>
      <point x="464.667" y="329"/>
      <point x="430" y="283.333"/>
      <point x="383.333" y="270.333" type="curve"/>
      <point x="383.333" y="270.333" type="line"/>
      <point x="440" y="258"/>
      <point x="489.333" y="216"/>
      <point x="489.333" y="141" type="curve" smooth="yes"/>
      <point x="489.333" y="58.3333"/>
      <point x="429.667" y="0"/>
      <point x="326.667" y="0" type="curve" smooth="yes"/>
    </contour>
  </outline>
</glyph>
<glyph name="uni0433" format="2">
  <advance width="401"/>
  <unicode hex="0433"/>
  <outline>
    <contour>
      <point x="178.333" y="425" type="line"/>
      <point x="178.333" y="0" type="line"/>
      <point x="73.3333" y="0" type="line"/>
      <point x="73.3333" y="500" type="line"/>
      <point x="391" y="500" type="line"/>
      <point x="391" y="425" type="line"/>
    </contour>
  </outline>
</glyph>
<glyph name="uni0434" format="2">
  <advance width="593"/>
  <unicode hex="0434"/>
  <outline>
    <contour>
      <point x="413.333" y="75" type="line"/>
      <point x="413.333" y="425" type="line"/>
      <point x="239.813" y="425" type="line"/>
      <point x="237.813" y="386.249" type="line" smooth="yes"/>
      <point x="227.986" y="195.563"/>
      <point x="207.901" y="127.795"/>
      <point x="175" y="75" type="curve"/>
    </contour>
    <contour>
      <point x="582.333" y="-141" type="line"/>
      <point x="479" y="-141" type="line"/>
      <point x="479" y="0" type="line"/>
      <point x="113.333" y="0" type="line"/>
      <point x="113.333" y="-141" type="line"/>
      <point x="10" y="-141" type="line"/>
      <point x="10" y="75" type="line"/>
      <point x="61" y="75" type="line"/>
      <point x="116.667" y="169"/>
      <point x="128.599" y="230.177"/>
      <point x="137" y="429" type="curve" smooth="yes"/>
      <point x="140" y="500" type="line"/>
      <point x="518.333" y="500" type="line"/>
      <point x="518.333" y="75" type="line"/>
      <point x="582.333" y="75" type="line"/>
    </contour>
  </outline>
</glyph>
<glyph name="uni0436" format="2">
  <advance width="755"/>
  <unicode hex="0436"/>
  <outline>
    <contour>
      <point x="10" y="0" type="line"/>
      <point x="232" y="269.667" type="line"/>
      <point x="22" y="500" type="line"/>
      <point x="152.333" y="500" type="line"/>
      <point x="325.667" y="293.667" type="line"/>
      <point x="327.667" y="293.667" type="line"/>
      <point x="327.667" y="500" type="line"/>
      <point x="427.667" y="500" type="line"/>
      <point x="427.667" y="293.667" type="line"/>
      <point x="429.667" y="293.667" type="line"/>
      <point x="602.667" y="500" type="line"/>
      <point x="733.333" y="500" type="line"/>
      <point x="522.667" y="269.333" type="line"/>
      <point x="745.333" y="0" type="line"/>
      <point x="614.333" y="0" type="line"/>
      <point x="429.667" y="235.333" type="line"/>
      <point x="427.667" y="235" type="line"/>
      <point x="427.667" y="0" type="line"/>
      <point x="327.667" y="0" type="line"/>
      <point x="327.667" y="235" type="line"/>
      <point x="325.667" y="235" type="line"/>
      <point x="141.333" y="0" type="line"/>
    </contour>
  </outline>
</glyph>
<glyph name="uni0438" format="2">
  <advance width="609"/>
  <unicode hex="0438"/>
  <outline>
    <contour>
      <point x="73.3333" y="0" type="line"/>
      <point x="73.3333" y="500" type="line"/>
      <point x="181.667" y="500" type="line"/>
      <point x="181.667" y="140.333" type="line"/>
      <point x="184.667" y="140.333" type="line"/>
      <point x="417.667" y="500" type="line"/>
      <point x="535.667" y="500" type="line"/>
      <point x="535.667" y="0" type="line"/>
      <point x="430.667" y="0" type="line"/>
      <point x="430.667" y="360.333" type="line"/>
      <point x="427.667" y="360.333" type="line"/>
      <point x="194.667" y="0" type="line"/>
    </contour>
  </outline>
</glyph>
<glyph name="uni0439" format="2">
  <advance width="609"/>
  <unicode hex="0439"/>
  <outline>
    <component base="uni0438"/>
    <component base="uni0438"/>
    <contour>
      <point x="227.667" y="708" type="curve"/>
      <point x="251" y="677.333"/>
      <point x="289.333" y="674"/>
      <point x="322" y="684" type="curve"/>
      <point x="359.979" y="684"/>
      <point x="392.12" y="699.333"/>
      <point x="404.667" y="731.333" type="curve"/>
      <point x="406.981" y="703.667"/>
      <point x="408.451" y="681.333"/>
      <point x="384" y="681.333" type="curve"/>
      <point x="348" y="622.667"/>
      <point x="295.333" y="609.333"/>
      <point x="234.667" y="639.333" type="curve"/>
      <point x="182.508" y="639.333"/>
      <point x="161.969" y="672.667"/>
      <point x="162.667" y="731.333" type="curve"/>
      <point x="166.296" y="721.333"/>
      <point x="204.951" y="708"/>
    </contour>
  </outline>
</glyph>
<glyph name="uni043B" format="2">
  <advance width="581"/>
  <unicode hex="043B"/>
  <outline>
    <contour>
      <point x="33.6667" y="85" type="line"/>
      <point x="39.6667" y="83"/>
      <point x="53" y="80"/>
      <point x="60" y="80" type="curve" smooth="yes"/>
      <point x="109.433" y="80"/>
      <point x="122.74" y="147.351"/>
      <point x="133.333" y="372" type="curve" smooth="yes"/>
      <point x="139.333" y="500" type="line"/>
      <point x="508" y="500" type="line"/>
      <point x="508" y="0" type="line"/>
      <point x="403" y="0" type="line"/>
      <point x="403" y="425" type="line"/>
      <point x="241.333" y="425" type="line"/>
      <point x="237" y="320.333" type="line" smooth="yes"/>
      <point x="227.345" y="86.8342"/>
      <point x="191.827" y="-7"/>
      <point x="83.3333" y="-7" type="curve" smooth="yes"/>
      <point x="62.3333" y="-7"/>
      <point x="46.3333" y="-3.66667"/>
      <point x="33.6667" y="-0.666667" type="curve"/>
    </contour>
  </outline>
</glyph>
<glyph name="uni043F" format="2">
  <advance width="584"/>
  <unicode hex="043F"/>
  <outline>
    <contour>
      <point x="73.3333" y="0" type="line"/>
      <point x="73.3333" y="500" type="line"/>
      <point x="510.333" y="500" type="line"/>
      <point x="510.333" y="-0.333333" type="line"/>
      <point x="405.333" y="-0.333333" type="line"/>
      <point x="405.333" y="425" type="line"/>
      <point x="178.333" y="425" type="line"/>
      <point x="178.333" y="0" type="line"/>
    </contour>
  </outline>
</glyph>
<glyph name="uni0443" format="2">
  <advance width="549"/>
  <unicode hex="0443"/>
  <outline>
    <contour>
      <point x="125.667" y="-198.667" type="line"/>
      <point x="225" y="-198.667" type="line"/>
      <point x="535.667" y="500" type="line"/>
      <point x="428.667" y="500" type="line"/>
    </contour>
    <contour>
      <point x="236.978" y="-22.6223" type="line"/>
      <point x="293.067" y="104.426" type="line"/>
      <point x="141" y="500" type="line"/>
      <point x="23.3333" y="500" type="line"/>
    </contour>
  </outline>
</glyph>
<glyph name="uni0445" format="2">
  <advance width="547"/>
  <unicode hex="0445"/>
  <outline>
    <contour>
      <point x="530.333" y="0" type="line"/>
      <point x="401" y="0" type="line"/>
      <point x="266.333" y="191" type="line"/>
      <point x="136.667" y="0" type="line"/>
      <point x="16.6667" y="0" type="line"/>
      <point x="208.667" y="262" type="line"/>
      <point x="32.3333" y="500" type="line"/>
      <point x="161.667" y="500" type="line"/>
      <point x="282.333" y="331.667" type="line"/>
      <point x="396" y="500" type="line"/>
      <point x="516" y="500" type="line"/>
      <point x="339.333" y="262" type="line"/>
    </contour>
  </outline>
</glyph>
<glyph name="uni0447" format="2">
  <advance width="548"/>
  <unicode hex="0447"/>
  <outline>
    <contour>
      <point x="53.3333" y="344.667" type="curve" smooth="yes"/>
      <point x="53.3333" y="500" type="line"/>
      <point x="158.333" y="500" type="line"/>
      <point x="158.333" y="358.667" type="line" smooth="yes"/>
      <point x="158.333" y="289.667"/>
      <point x="191.667" y="250.667"/>
      <point x="260" y="250.667" type="curve" smooth="yes"/>
      <point x="306.333" y="250.667"/>
      <point x="354.667" y="270.667"/>
      <point x="369.333" y="296.667" type="curve"/>
      <point x="369.333" y="500" type="line"/>
      <point x="474.333" y="500" type="line"/>
      <point x="474.333" y="0" type="line"/>
      <point x="369.333" y="0" type="line"/>
      <point x="369.333" y="199" type="line"/>
      <point x="337.667" y="180.667"/>
      <point x="285.667" y="170.333"/>
      <point x="233.667" y="170.333" type="curve" smooth="yes"/>
      <point x="116" y="170.333"/>
      <point x="53.3333" y="230.333"/>
    </contour>
  </outline>
</glyph>
<glyph name="uni044E" format="2">
  <advance width="806"/>
  <unicode hex="044E"/>
  <outline>
    <contour>
      <point x="73.3333" y="0" type="line"/>
      <point x="73.3333" y="500" type="line"/>
      <point x="178.333" y="500" type="line"/>
      <point x="178.333" y="299" type="line"/>
      <point x="261.333" y="299" type="line"/>
      <point x="275.667" y="425.551"/>
      <point x="367" y="511.333"/>
      <point x="512.257" y="511.333" type="curve" smooth="yes"/>
      <point x="685" y="511.333"/>
      <point x="751.333" y="390.164"/>
      <point x="751.333" y="251.374" type="curve" smooth="yes"/>
      <point x="751.333" y="84.6667"/>
      <point x="650" y="-11.3333"/>
      <point x="505.979" y="-11.3333" type="curve" smooth="yes"/>
      <point x="359.667" y="-11.3333"/>
      <point x="270" y="78"/>
      <point x="259.333" y="221.333" type="curve"/>
      <point x="178.333" y="221.333" type="line"/>
      <point x="178.333" y="0" type="line"/>
    </contour>
    <contour>
      <point x="369.333" y="247.803" type="curve" smooth="yes"/>
      <point x="369.333" y="140"/>
      <point x="419.333" y="65"/>
      <point x="505" y="65" type="curve" smooth="yes"/>
      <point x="599.333" y="65"/>
      <point x="641.333" y="152"/>
      <point x="641.333" y="253.048" type="curve" smooth="yes"/>
      <point x="641.333" y="362.36"/>
      <point x="592.667" y="436.333"/>
      <point x="509" y="436.333" type="curve" smooth="yes"/>
      <point x="422.667" y="436.333"/>
      <point x="369.333" y="359.004"/>
    </contour>
  </outline>
</glyph>
<glyph name="uni044F" format="2">
  <advance width="536"/>
  <unicode hex="044F"/>
  <outline>
    <contour>
      <point x="358" y="282.667" type="line"/>
      <point x="358" y="419.333" type="line"/>
      <point x="240.333" y="419.333" type="line" smooth="yes"/>
      <point x="186.667" y="419.333"/>
      <point x="159.667" y="394.333"/>
      <point x="159.667" y="351.333" type="curve" smooth="yes"/>
      <point x="159.667" y="305.667"/>
      <point x="185.667" y="282.667"/>
      <point x="246" y="282.667" type="curve" smooth="yes"/>
    </contour>
    <contour>
      <point x="26.6667" y="0" type="line"/>
      <point x="41.6667" y="35.3333"/>
      <point x="47" y="54.3333"/>
      <point x="54.3333" y="112.333" type="curve" smooth="yes"/>
      <point x="56" y="126.333" type="line" smooth="yes"/>
      <point x="65" y="196.667"/>
      <point x="90" y="223.333"/>
      <point x="133" y="238.333" type="curve"/>
      <point x="133" y="234.333" type="line"/>
      <point x="76.6667" y="255.667"/>
      <point x="49.6667" y="298"/>
      <point x="49.6667" y="358.333" type="curve" smooth="yes"/>
      <point x="49.6667" y="444"/>
      <point x="118.667" y="500"/>
      <point x="221.667" y="500" type="curve" smooth="yes"/>
      <point x="463" y="500" type="line"/>
      <point x="463" y="0" type="line"/>
      <point x="358" y="0" type="line"/>
      <point x="358" y="204.667" type="line"/>
      <point x="236.333" y="204.667" type="line" smooth="yes"/>
      <point x="177.667" y="204.667"/>
      <point x="162.667" y="193.667"/>
      <point x="156.667" y="116.667" type="curve" smooth="yes"/>
      <point x="151.667" y="58"/>
      <point x="146.333" y="35"/>
      <point x="137.667" y="0" type="curve"/>
    </contour>
  </outline>
</glyph>
<glyph name="uni0454" format="2">
  <advance width="593"/>
  <unicode hex="0454"/>
  <outline>
    <contour>
      <point x="433.667" y="154.667" type="curve"/>
      <point x="543.333" y="152.667" type="line"/>
      <point x="510.667" y="47"/>
      <point x="420" y="-14.3333"/>
      <point x="309.667" y="-14.3333" type="curve" smooth="yes"/>
      <point x="162" y="-14.3333"/>
      <point x="60" y="81"/>
      <point x="60" y="248" type="curve" smooth="yes"/>
      <point x="60" y="414.333"/>
      <point x="162" y="510.333"/>
      <point x="309.667" y="510.333" type="curve" smooth="yes"/>
      <point x="413.667" y="510.333"/>
      <point x="504.333" y="454.333"/>
      <point x="540.333" y="357.333" type="curve"/>
      <point x="428" y="357.333" type="line"/>
      <point x="403.667" y="405"/>
      <point x="365.667" y="436.333"/>
      <point x="310" y="436.333" type="curve" smooth="yes"/>
      <point x="225.333" y="436.333"/>
      <point x="179.667" y="366.333"/>
      <point x="169.667" y="284.667" type="curve"/>
      <point x="389.333" y="284.667" type="line"/>
      <point x="389.333" y="211" type="line"/>
      <point x="170.667" y="211" type="line"/>
      <point x="180.333" y="128.667"/>
      <point x="224.667" y="62.3333"/>
      <point x="309" y="62.3333" type="curve" smooth="yes"/>
      <point x="372.667" y="62.3333"/>
      <point x="411.333" y="102.333"/>
    </contour>
  </outline>
</glyph>
<glyph name="uni1E1D" format="2">
  <advance width="567"/>
  <unicode hex="1E1D"/>
  <anchor x="281" y="586.667" name="top"/>
  <outline>
    <contour>
      <point x="54.6667" y="247" type="curve" smooth="yes"/>
      <point x="54.6667" y="403.333"/>
      <point x="129.667" y="512.667"/>
      <point x="287.667" y="512.667" type="curve" smooth="yes"/>
      <point x="436" y="512.667"/>
      <point x="511.333" y="415.667"/>
      <point x="511.333" y="275" type="curve" smooth="yes"/>
      <point x="511.333" y="231.667" type="line"/>
      <point x="164" y="231.667" type="line"/>
      <point x="164" y="140"/>
      <point x="200" y="58"/>
      <point x="291" y="58" type="curve" smooth="yes"/>
      <point x="357" y="58"/>
      <point x="394.333" y="101.333"/>
      <point x="400.333" y="158.667" type="curve"/>
      <point x="509.667" y="158.667" type="line"/>
      <point x="492.667" y="51"/>
      <point x="416" y="-14"/>
      <point x="285.667" y="-14" type="curve" smooth="yes"/>
      <point x="123.333" y="-14"/>
      <point x="54.6667" y="97.6667"/>
    </contour>
    <contour>
      <point x="164" y="303.333" type="curve"/>
      <point x="402" y="303.333" type="line"/>
      <point x="402" y="365.667"/>
      <point x="377.333" y="441"/>
      <point x="285.667" y="441" type="curve" smooth="yes"/>
      <point x="211.333" y="441"/>
      <point x="164" y="391"/>
    </contour>
    <contour>
      <point x="394.929" y="-149.879" type="curve" smooth="yes"/>
      <point x="394.929" y="-210.226"/>
      <point x="352.173" y="-243"/>
      <point x="283.549" y="-243" type="curve" smooth="yes"/>
      <point x="258.549" y="-243"/>
      <point x="235.569" y="-240.301"/>
      <point x="198.919" y="-234" type="curve"/>
      <point x="198.919" y="-180.667" type="line"/>
      <point x="224.749" y="-189.66"/>
      <point x="253.884" y="-193"/>
      <point x="277.367" y="-193" type="curve" smooth="yes"/>
      <point x="303.011" y="-193"/>
      <point x="319.262" y="-177.166"/>
      <point x="319.262" y="-150.879" type="curve" smooth="yes"/>
      <point x="319.262" y="-116.718"/>
      <point x="286.352" y="-99.6667"/>
      <point x="247.593" y="-99.6667" type="curve" smooth="yes"/>
      <point x="203.596" y="-99.6667" type="line"/>
      <point x="258.929" y="13.6667" type="line"/>
      <point x="314.929" y="13.6667" type="line"/>
      <point x="277.402" y="-58.4451" type="line"/>
      <point x="361.476" y="-58.4451"/>
      <point x="394.929" y="-88.327"/>
    </contour>
    <contour>
      <point x="135" y="714.667" type="curve"/>
      <point x="189.667" y="714.667" type="line"/>
      <point x="193.667" y="684"/>
      <point x="242" y="656"/>
      <point x="282.667" y="656" type="curve" smooth="yes"/>
      <point x="323.333" y="656"/>
      <point x="372.333" y="684"/>
      <point x="376.333" y="714.667" type="curve"/>
      <point x="429.667" y="714.667" type="line"/>
      <point x="419" y="643"/>
      <point x="359" y="586.667"/>
      <point x="282.333" y="586.667" type="curve" smooth="yes"/>
      <point x="202.333" y="586.667"/>
      <point x="143" y="640.667"/>
    </contour>
  </outline>
</glyph>
<glyph name="uni1EA7" format="2">
  <advance width="540"/>
  <unicode hex="1EA7"/>
  <anchor x="279.667" y="786.667" name="_top"/>
  <anchor x="283.667" y="786.667" name="_top.mkmk"/>
  <anchor x="281" y="586.667" name="top"/>
  <anchor x="283.667" y="786.667" name="top.mkmk"/>
  <outline>
    <contour>
      <point x="318" y="786.667" type="line"/>
      <point x="254" y="786.667" type="line"/>
      <point x="110.333" y="960.667" type="line"/>
      <point x="221" y="960.667" type="line"/>
    </contour>
    <contour>
      <point x="48.3333" y="139.667" type="curve" smooth="yes"/>
      <point x="48.3333" y="253.667"/>
      <point x="144.667" y="308"/>
      <point x="308.333" y="308" type="curve" smooth="yes"/>
      <point x="335.503" y="308"/>
      <point x="350.83" y="307"/>
      <point x="378" y="305" type="curve"/>
      <point x="378" y="351.667" type="line" smooth="yes"/>
      <point x="378" y="410"/>
      <point x="343.667" y="441"/>
      <point x="279.333" y="441" type="curve" smooth="yes"/>
      <point x="218.333" y="441"/>
      <point x="181.333" y="413"/>
      <point x="181.333" y="364.667" type="curve"/>
      <point x="74" y="364.667" type="line"/>
      <point x="74" y="459.333"/>
      <point x="149" y="513.333"/>
      <point x="280.333" y="513.333" type="curve" smooth="yes"/>
      <point x="442.169" y="513.333"/>
      <point x="488.133" y="457.108"/>
      <point x="485.333" y="335" type="curve" smooth="yes"/>
      <point x="482" y="188.667" type="line" smooth="yes"/>
      <point x="479.794" y="91.359"/>
      <point x="490" y="30.3333"/>
      <point x="499.667" y="0" type="curve"/>
      <point x="397.333" y="0" type="line"/>
      <point x="390.333" y="21.6667"/>
      <point x="386.333" y="53"/>
      <point x="385" y="68" type="curve"/>
      <point x="333.667" y="6.66667"/>
      <point x="294.333" y="-14"/>
      <point x="231.333" y="-14" type="curve" smooth="yes"/>
      <point x="121.724" y="-14"/>
      <point x="48.3333" y="47.6162"/>
    </contour>
    <contour>
      <point x="157" y="144.333" type="curve" smooth="yes"/>
      <point x="157" y="97.9569"/>
      <point x="198.385" y="62"/>
      <point x="252" y="62" type="curve" smooth="yes"/>
      <point x="335" y="62"/>
      <point x="378" y="110.667"/>
      <point x="378" y="201.667" type="curve" smooth="yes"/>
      <point x="378" y="233" type="line"/>
      <point x="358.89" y="235"/>
      <point x="348.11" y="236"/>
      <point x="329" y="236" type="curve" smooth="yes"/>
      <point x="221.333" y="236"/>
      <point x="157" y="210.333"/>
    </contour>
    <contour>
      <point x="433.667" y="586.667" type="line"/>
      <point x="370.333" y="586.667" type="line"/>
      <point x="283.667" y="696.667" type="line"/>
      <point x="197" y="586.667" type="line"/>
      <point x="133.667" y="586.667" type="line"/>
      <point x="223.667" y="760" type="line"/>
      <point x="343.667" y="760" type="line"/>
    </contour>
  </outline>
</glyph>
<glyph name="uni1EAA" format="2">
  <advance width="736"/>
  <unicode hex="1EAA"/>
  <anchor x="368.333" y="797" name="_top"/>
  <anchor x="368.333" y="797" name="top"/>
  <outline>
    <contour>
      <point x="214.333" y="1001.67" type="line"/>
      <point x="220.333" y="1061.67"/>
      <point x="257.667" y="1102.67"/>
      <point x="301.938" y="1102.67" type="curve" smooth="yes"/>
      <point x="324.609" y="1102.67"/>
      <point x="350.079" y="1093.27"/>
      <point x="373.173" y="1081.95" type="curve" smooth="yes"/>
      <point x="392.129" y="1072.66"/>
      <point x="410.494" y="1065.33"/>
      <point x="424.077" y="1065.33" type="curve" smooth="yes"/>
      <point x="442" y="1065.33"/>
      <point x="456.333" y="1078.67"/>
      <point x="461" y="1104.67" type="curve"/>
      <point x="514.667" y="1104.67" type="line"/>
      <point x="509.333" y="1048"/>
      <point x="476" y="1002.67"/>
      <point x="428.403" y="1002.67" type="curve" smooth="yes"/>
      <point x="404.833" y="1002.67"/>
      <point x="379.376" y="1012.65"/>
      <point x="357.715" y="1023.44" type="curve" smooth="yes"/>
      <point x="338.073" y="1033.22"/>
      <point x="319.925" y="1040"/>
      <point x="305.781" y="1040" type="curve" smooth="yes"/>
      <point x="288.333" y="1040"/>
      <point x="272.667" y="1027.67"/>
      <point x="268.333" y="1001.67" type="curve"/>
    </contour>
    <contour>
      <point x="241.333" y="275" type="line"/>
      <point x="490.333" y="275" type="line"/>
      <point x="365.667" y="594.333" type="line"/>
    </contour>
    <contour>
      <point x="13.3333" y="0" type="line"/>
      <point x="305.667" y="721.333" type="line"/>
      <point x="428.667" y="721.333" type="line"/>
      <point x="723.333" y="0" type="line"/>
      <point x="604.333" y="0" type="line"/>
      <point x="532.333" y="180" type="line"/>
      <point x="201.333" y="180" type="line"/>
      <point x="130.333" y="0" type="line"/>
    </contour>
    <contour>
      <point x="521" y="797" type="line"/>
      <point x="457.667" y="797" type="line"/>
      <point x="371" y="907" type="line"/>
      <point x="284.333" y="797" type="line"/>
      <point x="221" y="797" type="line"/>
      <point x="311" y="970.333" type="line"/>
      <point x="431" y="970.333" type="line"/>
    </contour>
  </outline>
</glyph>
<glyph name="emdash" format="2">
  <advance width="720"/>
  <unicode hex="2014"/>
  <outline>
    <contour>
      <point x="693.333" y="246" type="line"/>
      <point x="26.6667" y="246" type="line"/>
      <point x="26.6667" y="324.333" type="line"/>
      <point x="693.333" y="324.333" type="line"/>
    </contour>
  </outline>
</glyph>
<glyph name="quoteleft" format="2">
  <advance width="265"/>
  <unicode hex="2018"/>
  <anchor x="98.3333" y="471.333" name="_cedilla.top"/>
  <outline>
    <contour>
      <point x="228.667" y="722" type="line"/>
      <point x="162.333" y="471.333" type="line"/>
      <point x="37" y="471.333" type="line"/>
      <point x="150.333" y="722" type="line"/>
    </contour>
  </outline>
</glyph>
<glyph name="fraction" format="2">
  <advance width="563"/>
  <unicode hex="2044"/>
  <outline>
    <contour>
      <point x="534.667" y="736" type="line"/>
      <point x="108.667" y="-14" type="line"/>
      <point x="29.6667" y="-14" type="line"/>
      <point x="455.667" y="736" type="line"/>
    </contour>
  </outline>
</glyph>
<glyph name="partialdiff" format="2">
  <advance width="592"/>
  <unicode hex="2202"/>
  <outline>
    <contour>
      <point x="264.396" y="677.196" type="curve" smooth="yes"/>
      <point x="219" y="677.196"/>
      <point x="189.246" y="664.43"/>
      <point x="152.246" y="643.43" type="curve"/>
      <point x="105.333" y="702.667" type="line"/>
      <point x="153.333" y="722.667"/>
      <point x="197.333" y="732.667"/>
      <point x="244.133" y="732.667" type="curve" smooth="yes"/>
      <point x="428.667" y="732.667"/>
      <point x="537.333" y="605.043"/>
      <point x="537.333" y="411" type="curve" smooth="yes"/>
      <point x="537.333" y="192"/>
      <point x="442.333" y="-12.6667"/>
      <point x="273.907" y="-12.6667" type="curve" smooth="yes"/>
      <point x="162.12" y="-12.6667"/>
      <point x="54.6676" y="77.5994"/>
      <point x="54.6676" y="185.041" type="curve" smooth="yes"/>
      <point x="54.6676" y="340.041"/>
      <point x="158" y="436.612"/>
      <point x="273.129" y="436.612" type="curve" smooth="yes"/>
      <point x="337" y="436.612"/>
      <point x="372.327" y="415.674"/>
      <point x="433" y="366.612" type="curve"/>
      <point x="437.508" y="390.474"/>
      <point x="440.333" y="424"/>
      <point x="440.333" y="458.582" type="curve" smooth="yes"/>
      <point x="440.333" y="554.029"/>
      <point x="405.333" y="677.196"/>
    </contour>
    <contour>
      <point x="425.166" y="323.113" type="curve"/>
      <point x="398.071" y="354.079"/>
      <point x="359.04" y="390.113"/>
      <point x="306.9" y="390.113" type="curve" smooth="yes"/>
      <point x="214.166" y="390.113"/>
      <point x="161.334" y="276.041"/>
      <point x="161.334" y="168.466" type="curve" smooth="yes"/>
      <point x="161.334" y="101.041"/>
      <point x="190.001" y="30.785"/>
      <point x="254.799" y="30.785" type="curve" smooth="yes"/>
      <point x="371.001" y="30.785"/>
      <point x="410.166" y="194.113"/>
    </contour>
  </outline>
</glyph>
<glyph name="summation" format="2">
  <advance width="743"/>
  <unicode hex="2211"/>
  <outline>
    <contour>
      <point x="17.7481" y="775.673" type="line"/>
      <point x="17.6667" y="780" type="line"/>
      <point x="32.8563" y="778.213"/>
      <point x="110.667" y="773"/>
      <point x="125.667" y="773" type="curve" smooth="yes"/>
      <point x="644.667" y="773" type="line"/>
      <point x="657.667" y="607" type="line"/>
      <point x="636.667" y="607" type="line"/>
      <point x="605.937" y="698.523"/>
      <point x="577.477" y="726"/>
      <point x="470.667" y="726" type="curve" smooth="yes"/>
      <point x="219" y="726" type="line"/>
      <point x="500" y="356" type="line"/>
      <point x="197" y="6" type="line"/>
      <point x="553.667" y="6" type="line" smooth="yes"/>
      <point x="640.042" y="6"/>
      <point x="658.097" y="35.5209"/>
      <point x="694.667" y="125" type="curve"/>
      <point x="718.667" y="125" type="line"/>
      <point x="697.667" y="34"/>
      <point x="682.667" y="-44"/>
      <point x="673.667" y="-109" type="curve"/>
      <point x="666.667" y="-107"/>
      <point x="604.667" y="-97"/>
      <point x="593.667" y="-97" type="curve" smooth="yes"/>
      <point x="75.6667" y="-97" type="line" smooth="yes"/>
      <point x="64.6667" y="-97"/>
      <point x="32.5535" y="-97.1552"/>
      <point x="15.6667" y="-100" type="curve"/>
      <point x="375.667" y="311" type="line"/>
    </contour>
  </outline>
</glyph>
<glyph name="minus" format="2">
  <advance width="548"/>
  <unicode hex="2212"/>
  <outline>
    <contour>
      <point x="481.333" y="267.667" type="line"/>
      <point x="66.6667" y="267.667" type="line"/>
      <point x="66.6667" y="347.333" type="line"/>
      <point x="481.333" y="347.333" type="line"/>
    </contour>
  </outline>
</glyph>
<glyph name="greaterequal" format="2">
  <advance width="1000"/>
  <unicode hex="2265"/>
  <outline>
    <contour>
      <point x="820" y="320.333" type="line"/>
      <point x="200" y="130.333" type="line"/>
      <point x="200" y="212.333" type="line"/>
      <point x="736" y="371.333" type="line"/>
      <point x="200" y="530.333" type="line"/>
      <point x="200" y="612.333" type="line"/>
      <point x="820" y="422.333" type="line"/>
    </contour>
    <contour>
      <point x="820" y="0" type="line"/>
      <point x="200" y="0" type="line"/>
      <point x="200" y="75" type="line"/>
      <point x="820" y="75" type="line"/>
    </contour>
  </outline>
</glyph>
<glyph name="uni041B.loclBGR" format="2">
  <advance width="658"/>
  <outline>
    <contour>
      <point x="13.3333" y="0" type="line"/>
      <point x="267.333" y="722" type="line"/>
      <point x="391" y="722" type="line"/>
      <point x="645" y="0" type="line"/>
      <point x="517" y="0" type="line"/>
      <point x="329" y="568" type="line"/>
      <point x="141.333" y="0" type="line"/>
    </contour>
  </outline>
</glyph>
<glyph name="uni0431.loclSRB" format="2">
  <advance width="597"/>
  <outline>
    <contour>
      <point x="50" y="271.333" type="curve" smooth="yes"/>
      <point x="50" y="596.667"/>
      <point x="172.277" y="658.725"/>
      <point x="305.02" y="682.46" type="curve" smooth="yes"/>
      <point x="400.015" y="699.508"/>
      <point x="438.475" y="709.433"/>
      <point x="457.492" y="722" type="curve"/>
      <point x="529.333" y="722" type="line"/>
      <point x="516.992" y="660.292"/>
      <point x="485.736" y="607.155"/>
      <point x="383.467" y="598" type="curve" smooth="yes"/>
      <point x="212.778" y="583.284"/>
      <point x="154.166" y="546.094"/>
      <point x="129.842" y="411.333" type="curve"/>
      <point x="131.495" y="410.667" type="line"/>
      <point x="174.372" y="483"/>
      <point x="243.529" y="511.667"/>
      <point x="316.567" y="511.667" type="curve" smooth="yes"/>
      <point x="451" y="511.667"/>
      <point x="546.667" y="398.667"/>
      <point x="546.667" y="256.667" type="curve" smooth="yes"/>
      <point x="546.667" y="110.667"/>
      <point x="457.333" y="-13.6667"/>
      <point x="292.374" y="-13.6667" type="curve" smooth="yes"/>
      <point x="128.168" y="-13.6667"/>
      <point x="50" y="110"/>
    </contour>
    <contour>
      <point x="159.333" y="262.667" type="curve" smooth="yes"/>
      <point x="159.333" y="161.333"/>
      <point x="191.414" y="58"/>
      <point x="293.479" y="58" type="curve" smooth="yes"/>
      <point x="395.89" y="58"/>
      <point x="436.667" y="162"/>
      <point x="436.667" y="256.485" type="curve" smooth="yes"/>
      <point x="436.667" y="352.667"/>
      <point x="395.901" y="440.667"/>
      <point x="301.566" y="440.667" type="curve" smooth="yes"/>
      <point x="207.124" y="440.667"/>
      <point x="159.333" y="352.333"/>
    </contour>
  </outline>
</glyph>
<glyph name="uni0432.loclBGR" format="2">
  <advance width="620"/>
  <outline>
    <contour>
      <point x="177.667" y="411.055" type="line"/>
      <point x="209.886" y="429.848"/>
      <point x="249.886" y="447.191"/>
      <point x="303.537" y="458.254" type="curve" smooth="yes"/>
      <point x="381.357" y="474.539"/>
      <point x="419.357" y="508.283"/>
      <point x="419.357" y="561.715" type="curve" smooth="yes"/>
      <point x="419.357" y="618.006"/>
      <point x="386.704" y="656.667"/>
      <point x="312.233" y="656.667" type="curve" smooth="yes"/>
      <point x="224.058" y="656.667"/>
      <point x="177.667" y="603.603"/>
      <point x="177.667" y="490.093" type="curve" smooth="yes"/>
    </contour>
    <contour>
      <point x="177.808" y="321.903" type="curve"/>
      <point x="177.667" y="226.454" type="line" smooth="yes"/>
      <point x="177.524" y="127.141"/>
      <point x="234.192" y="62"/>
      <point x="320.633" y="62" type="curve" smooth="yes"/>
      <point x="401.556" y="62"/>
      <point x="454.667" y="130.894"/>
      <point x="454.667" y="227.66" type="curve" smooth="yes"/>
      <point x="454.667" y="317.702"/>
      <point x="402.67" y="382.549"/>
      <point x="313.665" y="382.549" type="curve" smooth="yes"/>
      <point x="256.553" y="382.549"/>
      <point x="209.056" y="356.402"/>
    </contour>
    <contour>
      <point x="73.3333" y="281.121" type="curve" smooth="yes"/>
      <point x="73.3333" y="495.76" type="line" smooth="yes"/>
      <point x="73.3333" y="645.91"/>
      <point x="169.534" y="732.667"/>
      <point x="322.428" y="732.667" type="curve" smooth="yes"/>
      <point x="451.508" y="732.667"/>
      <point x="527.024" y="667.198"/>
      <point x="527.024" y="572.882" type="curve" smooth="yes"/>
      <point x="527.024" y="510.44"/>
      <point x="493.156" y="463.69"/>
      <point x="442.182" y="437.549" type="curve"/>
      <point x="519.447" y="406.611"/>
      <point x="565" y="330.876"/>
      <point x="565" y="244.876" type="curve" smooth="yes"/>
      <point x="565" y="88.7233"/>
      <point x="462.405" y="-12.6667"/>
      <point x="310.629" y="-12.6667" type="curve" smooth="yes"/>
      <point x="151.59" y="-12.6667"/>
      <point x="73.3333" y="82.1543"/>
    </contour>
  </outline>
</glyph>
<glyph name="uni0439.loclBGR" format="2">
  <advance width="591"/>
  <outline>
    <contour>
      <point x="73.3333" y="169" type="curve" smooth="yes"/>
      <point x="73.3333" y="500" type="line"/>
      <point x="178.333" y="500" type="line"/>
      <point x="178.333" y="181" type="line" smooth="yes"/>
      <point x="178.333" y="107.667"/>
      <point x="225.667" y="57.6667"/>
      <point x="291.333" y="57.6667" type="curve" smooth="yes"/>
      <point x="362" y="57.6667"/>
      <point x="412.667" y="114"/>
      <point x="412.667" y="194.333" type="curve" smooth="yes"/>
      <point x="412.667" y="500.333" type="line"/>
      <point x="517.667" y="500.333" type="line"/>
      <point x="517.667" y="0" type="line"/>
      <point x="412.667" y="0" type="line"/>
      <point x="412.667" y="68.6667" type="line"/>
      <point x="376.744" y="13.6107"/>
      <point x="326.715" y="-12.6667"/>
      <point x="249.667" y="-12.6667" type="curve" smooth="yes"/>
      <point x="134.333" y="-12.6667"/>
      <point x="73.3333" y="52.3333"/>
    </contour>
    <contour>
      <point x="138.667" y="728" type="curve"/>
      <point x="193.333" y="728" type="line"/>
      <point x="198" y="698"/>
      <point x="243.667" y="668.667"/>
      <point x="285" y="668.667" type="curve" smooth="yes"/>
      <point x="327" y="668.667"/>
      <point x="373.333" y="697.333"/>
      <point x="378" y="728" type="curve"/>
      <point x="432.667" y="728" type="line"/>
      <point x="423.333" y="658.333"/>
      <point x="365.333" y="598.333"/>
      <point x="283.333" y="598.333" type="curve" smooth="yes"/>
      <point x="204" y="598.333"/>
      <point x="146.667" y="655.333"/>
    </contour>
  </outline>
</glyph>
<glyph name="uni0444.loclBGR" format="2">
  <advance width="782"/>
  <outline>
    <contour>
      <point x="68" y="250.433" type="curve" smooth="yes"/>
      <point x="68" y="411.591"/>
      <point x="172.333" y="516.333"/>
      <point x="309.667" y="516.333" type="curve" smooth="yes"/>
      <point x="338.333" y="516.333" type="line"/>
      <point x="338.333" y="716.667" type="line"/>
      <point x="443.333" y="716.667" type="line"/>
      <point x="443.333" y="516.333" type="line"/>
      <point x="471.956" y="516.333" type="line" smooth="yes"/>
      <point x="609.381" y="516.333"/>
      <point x="714" y="411.593"/>
      <point x="714" y="250.094" type="curve" smooth="yes"/>
      <point x="714" y="92.3921"/>
      <point x="612.745" y="-14.6667"/>
      <point x="471.956" y="-14.6667" type="curve" smooth="yes"/>
      <point x="443.333" y="-14.6667" type="line"/>
      <point x="443.333" y="-194.333" type="line"/>
      <point x="338.333" y="-194.333" type="line"/>
      <point x="338.333" y="-14.6667" type="line"/>
      <point x="309.667" y="-14.6667" type="line" smooth="yes"/>
      <point x="169" y="-14.6667"/>
      <point x="68" y="93.0588"/>
    </contour>
    <contour>
      <point x="178.333" y="250.003" type="curve" smooth="yes"/>
      <point x="178.333" y="122.449"/>
      <point x="245" y="60.6667"/>
      <point x="322.333" y="60.6667" type="curve" smooth="yes"/>
      <point x="338.41" y="60.6667" type="line"/>
      <point x="338.41" y="438.624" type="line"/>
      <point x="322.333" y="438.624" type="line" smooth="yes"/>
      <point x="245.001" y="438.624"/>
      <point x="178.333" y="377.556"/>
    </contour>
    <contour>
      <point x="443.409" y="60.6667" type="line"/>
      <point x="459.289" y="60.6667" type="line" smooth="yes"/>
      <point x="536.824" y="60.6667"/>
      <point x="603.667" y="122.448"/>
      <point x="603.667" y="250.001" type="curve" smooth="yes"/>
      <point x="603.667" y="377.554"/>
      <point x="537.49" y="438.724"/>
      <point x="459.289" y="438.724" type="curve" smooth="yes"/>
      <point x="443.409" y="438.724" type="line"/>
    </contour>
  </outline>
</glyph>
